<?xml version="1.0" encoding="UTF-8"?>
<svg version="1.1" xmlns="http://www.w3.org/2000/svg" width="1280" height="1280">
<path d="M0 0 C422.4 0 844.8 0 1280 0 C1280 422.4 1280 844.8 1280 1280 C857.6 1280 435.2 1280 0 1280 C0 857.6 0 435.2 0 0 Z " fill="#F3F0EB" transform="translate(0,0)"/>
<path d="M0 0 C0.90153809 0.19916016 1.80307617 0.39832031 2.73193359 0.60351562 C59.51366905 13.36050078 116.80133571 36.82577725 164 71 C164.54833496 71.39670898 165.09666992 71.79341797 165.66162109 72.20214844 C187.76377585 88.29483726 209.53663404 107.15720909 225.76464844 129.31591797 C227.00519748 131.00708542 228.27047188 132.67745885 229.5390625 134.34765625 C257.14641105 171.22664567 270.56212383 217.82476494 264.23095703 263.69311523 C263.62957734 267.16816589 262.85058002 270.57841858 262 274 C261.80664062 274.83289551 261.61328125 275.66579102 261.4140625 276.52392578 C253.6819818 309.49862488 237.33541383 337.79336705 215 363 C214.14792969 363.96292969 213.29585937 364.92585938 212.41796875 365.91796875 C206.32914288 372.73469949 206.32914288 372.73469949 204.1875 374.4609375 C202.73248588 375.97536204 202.73248588 375.97536204 203.26611328 378.2355957 C204.07498203 381.28244229 205.2085545 383.91852968 206.5546875 386.76953125 C207.0808667 387.89206299 207.6070459 389.01459473 208.14916992 390.17114258 C208.42989349 390.76343658 208.71061707 391.35573059 208.99984741 391.9659729 C209.89322122 393.85094585 210.78011105 395.73884843 211.6652832 397.62768555 C212.57480816 399.5683946 213.48466937 401.50893547 214.39649963 403.44856262 C217.03081292 409.0529468 219.61673658 414.67868869 222.1875 420.3125 C226.95592265 430.73992488 231.75617705 441.15250876 236.5625 451.5625 C236.94503937 452.39113556 237.32757874 453.21977112 237.72171021 454.07351685 C241.63219619 462.54403825 245.544118 471.01389522 249.45793152 479.48287964 C263.07187344 508.94314885 276.59238055 538.44522347 290 568 C286.15817936 569.28060688 285.00779825 568.47601832 281.29003906 566.98413086 C280.10418716 566.51362808 278.91833527 566.04312531 277.69654846 565.55836487 C276.38616906 565.02736776 275.07586352 564.49618837 273.765625 563.96484375 C272.39733668 563.41791443 271.02871224 562.87182534 269.65977478 562.32652283 C265.95832133 560.84939694 262.26161181 559.36071997 258.56560898 557.87001801 C254.68103527 556.30566281 250.79210153 554.75222468 246.90356445 553.19775391 C240.58463141 550.67021442 234.26810356 548.1367623 227.95361328 545.59814453 C220.12730168 542.45173243 212.2973111 539.3146575 204.46484375 536.18359375 C202.22550363 535.2883324 199.98616442 534.39306877 197.74682617 533.49780273 C196.66194916 533.0641037 195.57707214 532.63040466 194.45932007 532.18356323 C191.17077696 530.86831162 187.88279641 529.55166298 184.5949707 528.23461914 C164.79006457 520.30282452 144.96142481 512.43122245 125.12734795 504.57272053 C123.24634753 503.82741026 121.36541395 503.08193157 119.48449707 502.33641052 C117.02567609 501.36192792 114.56669332 500.38785341 112.10754395 499.41419983 C105.71736584 496.88154166 99.33433606 494.33272121 92.96020508 491.76000977 C91.61697343 491.21890161 90.273717 490.67785493 88.93043518 490.13687134 C86.41519933 489.12387798 83.90209402 488.10610302 81.38999939 487.08529663 C74.33159626 484.241717 67.25004989 481.66157474 60.02218628 479.28552246 C47.10746157 474.86744027 47.10746157 474.86744027 44.0703125 469.74609375 C43.5062615 466.51846861 43.32034063 463.46059882 43.23535156 460.19238281 C42.77200472 455.87614352 40.97580322 451.97593951 39.3125 448 C38.96034424 447.14792969 38.60818848 446.29585937 38.24536133 445.41796875 C31.28676155 428.94313292 22.30316431 414.32928319 10.0703125 401.22265625 C8.20374044 399.21873266 6.44383926 397.16247085 4.6875 395.0625 C-24.64101086 361.55383357 -68.93376443 341.44652743 -110 327 C-111.40008159 326.4931312 -112.79987956 325.98547728 -114.19921875 325.4765625 C-134.52958157 318.32792428 -155.78764868 314.46010262 -177 311 C-177.93408691 310.84402344 -178.86817383 310.68804688 -179.83056641 310.52734375 C-228.90477393 302.42585718 -281.19700072 303.76969417 -330 313 C-330.88945312 313.16725586 -331.77890625 313.33451172 -332.6953125 313.50683594 C-368.80379941 320.40631181 -403.46888572 331.79202634 -436 349 C-437.07628662 349.56605957 -437.07628662 349.56605957 -438.17431641 350.14355469 C-452.67490297 357.82311062 -466.26251366 366.6331014 -479 377 C-512.89023879 348.64286142 -538.33724126 302.89217762 -542.81689453 258.76806641 C-544.02418745 240.51701691 -544.66726792 220.78426167 -540 203 C-539.80132324 202.21737793 -539.60264648 201.43475586 -539.39794922 200.62841797 C-536.16321037 188.18618277 -531.6350729 176.53959297 -526 165 C-525.48397217 163.93120605 -525.48397217 163.93120605 -524.95751953 162.84082031 C-517.31753844 147.19043481 -507.36342653 133.17651499 -496 120 C-495.37738281 119.26652344 -494.75476563 118.53304687 -494.11328125 117.77734375 C-482.4704475 104.44183869 -469.87467674 91.68643363 -455.59570312 81.18994141 C-454.02328379 80.0173631 -452.48766608 78.79594953 -450.953125 77.57421875 C-435.82235149 65.53488501 -419.1994864 55.65163716 -402.31738281 46.29003906 C-400.33437333 45.18613871 -398.36466247 44.06305243 -396.3984375 42.9296875 C-349.54130378 16.7028609 -294.75319276 1.4561758 -242 -7 C-240.70932617 -7.21108398 -239.41865234 -7.42216797 -238.08886719 -7.63964844 C-159.10348004 -20.44207575 -78.04830913 -17.42910209 0 0 Z " fill="#2D3E4F" transform="translate(772,236)"/>
<path d="M0 0 C3.91718167 0.01614022 7.83333652 -0.00000634 11.75048828 -0.01904297 C73.70752093 -0.06959901 138.01797581 13.72964885 192.78564453 43.39111328 C193.42679199 43.73174805 194.06793945 44.07238281 194.72851562 44.42333984 C205.25685752 50.03469754 215.12697956 56.39412634 224.78564453 63.39111328 C225.36443359 63.81005859 225.94322266 64.22900391 226.53955078 64.66064453 C234.64405506 70.58389011 242.09624728 77.07324793 249.34130859 84.00976562 C250.62366072 85.23619367 251.91862114 86.44940815 253.21533203 87.66064453 C272.6734252 106.32241005 287.16581611 131.28705148 293.78564453 157.39111328 C293.97255859 158.09002686 294.15947266 158.78894043 294.35205078 159.5090332 C296.08686269 166.8396901 296.0900448 174.15385964 296.04638672 181.64038086 C296.03568069 183.82124744 296.04632714 186.00128748 296.05908203 188.18212891 C296.08328956 209.20965329 290.19867137 229.17174015 279.78564453 247.39111328 C279.4039209 248.06126465 279.02219727 248.73141602 278.62890625 249.421875 C272.92404337 259.28551041 266.33185271 267.88279254 258.78564453 276.39111328 C257.91559245 277.44474392 257.04837763 278.50072421 256.18408203 279.55908203 C254.27240982 281.8163497 252.47970599 283.69562128 250.22314453 285.57861328 C247.82997913 287.60769786 245.50583315 289.65806962 243.23486328 291.82470703 C207.31361323 326.05671434 158.95070586 344.82405843 111.78564453 357.39111328 C110.9197168 357.63168457 110.05378906 357.87225586 109.16162109 358.12011719 C96.404089 361.65868378 83.42010875 363.66516008 70.34814453 365.64111328 C69.48588257 365.77221497 68.62362061 365.90331665 67.73522949 366.03839111 C65.21269941 366.41857818 62.68899668 366.78950569 60.16455078 367.15673828 C59.42852127 367.26692291 58.69249176 367.37710754 57.93415833 367.4906311 C45.85121095 369.20752638 33.70067742 369.57125687 21.51220703 369.66455078 C20.8084878 369.67082993 20.10476856 369.67710907 19.3797245 369.68357849 C14.05672569 369.72960561 8.73382041 369.75345802 3.41064453 369.76611328 C2.23767256 369.76912319 2.23767256 369.76912319 1.04100418 369.77219391 C-24.03532497 369.82194048 -48.4913015 368.95339129 -73.21435547 364.39111328 C-74.59537205 364.14270999 -75.97639417 363.89433754 -77.35742188 363.64599609 C-89.91680526 361.35640127 -102.44582417 358.76387386 -114.59082031 354.77587891 C-123.78846182 351.90993022 -131.24670304 355.29984647 -139.72998047 358.78955078 C-140.86585602 359.24756073 -142.00173157 359.70557068 -143.17202759 360.17745972 C-145.64185169 361.17459341 -148.11003244 362.17498888 -150.57611084 363.18127441 C-154.5234362 364.79176335 -158.47598825 366.38912003 -162.4296875 367.98388672 C-163.80057402 368.53697146 -165.17145408 369.09007221 -166.54232788 369.64318848 C-167.23112408 369.92108719 -167.91992027 370.1989859 -168.62958908 370.48530579 C-170.75943863 371.34516453 -172.88876871 372.20629841 -175.01797485 373.06774902 C-190.62297737 379.37905803 -206.27088294 385.58160786 -221.92033386 391.78168488 C-228.12055606 394.23839027 -234.31989729 396.69731791 -240.51904297 399.15673828 C-241.17177437 399.41567745 -241.82450577 399.67461662 -242.49701691 399.94140244 C-252.49976936 403.91008596 -262.49619663 407.89442766 -272.48779297 411.89111328 C-273.69644012 412.37453186 -274.90508728 412.85795044 -276.15036011 413.35601807 C-284.25654821 416.60104991 -292.36012165 419.85290232 -300.44387817 423.15350342 C-305.99150182 425.39111328 -305.99150182 425.39111328 -308.21435547 425.39111328 C-305.89973855 417.58359949 -302.51829995 410.39069089 -299.00848389 403.06994629 C-297.19804407 399.29201441 -295.40567961 395.5055243 -293.61279297 391.71923828 C-293.24461456 390.94239685 -292.87643616 390.16555542 -292.49710083 389.36517334 C-288.7754848 381.4957732 -285.17310248 373.57402196 -281.58935547 365.64111328 C-277.14438856 355.80976929 -272.65686308 346.00152796 -268.07699585 336.23223877 C-266.36056659 332.56887946 -264.65092232 328.90234896 -262.94129944 325.23580933 C-261.34039624 321.80265678 -259.7365708 318.37091024 -258.12890625 314.94091797 C-256.34379759 311.1291898 -254.57169604 307.31162483 -252.80737305 303.49023438 C-252.12503912 302.01758285 -251.43856781 300.54684067 -250.74780273 299.078125 C-249.78947452 297.03889987 -248.84600144 294.99341548 -247.90576172 292.94580078 C-247.36121338 291.7751709 -246.81666504 290.60454102 -246.25561523 289.3984375 C-245.20843463 286.37401296 -244.92401414 285.25822247 -246.21435547 282.39111328 C-247.95084293 280.18196079 -247.95084293 280.18196079 -250.15185547 277.95361328 C-275.25155202 250.7093224 -290.53978053 216.29609839 -289.34619141 178.89697266 C-287.193005 137.97048145 -263.73936337 103.37557674 -234.21435547 76.39111328 C-229.70869846 72.51506773 -224.97837845 68.94067382 -220.21435547 65.39111328 C-219.66054199 64.97120117 -219.10672852 64.55128906 -218.53613281 64.11865234 C-209.30774202 57.1380981 -199.54919583 51.27199015 -189.44970703 45.64013672 C-187.48518134 44.54243975 -185.53249118 43.42672481 -183.58154297 42.30517578 C-128.74941828 11.70410392 -62.22350292 -0.3033775 0 0 Z " fill="#2D3D4F" transform="translate(521.21435546875,543.60888671875)"/>
<path d="M0 0 C5.44198135 0.00377161 10.88394448 0.00240366 16.32592517 -0.00180191 C71.16082905 -0.0428406 125.93019008 0.49618428 180.7219823 2.87661606 C184.70038974 3.04705719 188.67915267 3.20824148 192.65793163 3.36973625 C217.88923192 4.39877078 243.07457429 5.81626934 268.26419193 7.59228665 C275.50023512 8.10057646 282.73858073 8.56825499 289.97821265 9.02237183 C322.01448822 11.0388945 353.87179891 14.47366247 385.62280017 19.19106919 C386.42253253 19.30890763 387.22226489 19.42674607 388.04623157 19.54815537 C419.09550855 24.16449885 419.09550855 24.16449885 432.31030017 29.12856919 C433.3225365 29.48048325 433.3225365 29.48048325 434.35522205 29.83950669 C438.9790217 31.51433967 443.472888 33.60365701 446.99780017 37.12856919 C447.12280017 40.37856919 447.12280017 40.37856919 445.99780017 44.12856919 C437.58637606 51.42642415 423.91725528 53.61085323 413.31030017 55.62856919 C412.23143543 55.83796128 411.15257068 56.04735337 410.04101306 56.26309067 C393.18956551 59.48366564 376.26741983 62.04344586 359.24780017 64.19106919 C358.0617821 64.34132553 356.87576404 64.49158188 355.65380603 64.64639145 C331.54570692 67.6076487 307.38510997 69.78490388 283.15833789 71.47346359 C280.89400705 71.63145029 278.62980025 71.79113844 276.36559802 71.95095688 C243.78785702 74.24055259 211.18653812 75.74924508 178.55370837 76.99111801 C175.24768761 77.11890996 171.94208161 77.25428085 168.63647205 77.39224106 C133.11844723 78.84122583 97.58016988 79.2908766 62.03575999 79.29582626 C59.06148909 79.29655585 56.08722236 79.29872427 53.11295253 79.30132347 C42.58424983 79.31048158 32.05555946 79.31467133 21.52685291 79.31387192 C13.01413826 79.31334199 4.50146986 79.32035212 -4.01123303 79.33437973 C-69.22835408 79.43929165 -134.36500235 78.86880618 -199.50363034 75.37681824 C-201.92456 75.24771036 -204.34563271 75.12162278 -206.76675671 74.99621445 C-252.10689135 72.64415305 -297.39676068 70.09408468 -342.46692151 64.44497544 C-344.99013773 64.13007455 -347.51409294 63.8218668 -350.03833264 63.51528794 C-417.47799148 55.28484517 -417.47799148 55.28484517 -432.00219983 44.12856919 C-433.18969983 40.62856919 -433.18969983 40.62856919 -433.00219983 37.12856919 C-412.69100322 18.14279458 -369.05079387 18.17363518 -342.93969983 15.44448715 C-339.11988493 15.03367927 -335.31247513 14.5575947 -331.50219983 14.06606919 C-310.51033024 11.39798492 -289.38520119 9.36712915 -268.24048108 8.47012192 C-267.17893811 8.42286972 -267.17893811 8.42286972 -266.09594983 8.37466294 C-265.49460217 8.35073471 -264.89325452 8.32680649 -264.2736842 8.30215317 C-262.41750678 8.16030642 -260.56845372 7.92777638 -258.72485608 7.66958481 C-251.96589483 6.80645034 -245.14658087 6.57833702 -238.34594983 6.22622544 C-236.78471863 6.14350803 -235.22349546 6.06063907 -233.66227978 5.97762924 C-228.60917579 5.7104215 -223.55571175 5.45042861 -218.50219983 5.19106919 C-216.75322712 5.10085168 -215.00425454 5.01063153 -213.2552821 4.92040879 C-195.9800788 4.0317561 -178.70381219 3.16557989 -161.42016858 2.45669419 C-160.40570157 2.41477951 -159.39123456 2.37286484 -158.34602612 2.32968003 C-137.51663882 1.50908642 -116.67592421 0.96711514 -95.83423108 0.58560044 C-94.66709073 0.56419621 -93.49995038 0.54279198 -92.29744214 0.52073914 C-61.53288942 -0.02586701 -30.76838771 -0.02379145 0 0 Z " fill="#D0CDC9" transform="translate(633.0021998286247,981.8714308142662)"/>
<path d="M0 0 C9.40850174 7.54094951 15.38199257 16.53214094 18 28.3125 C19.04674648 39.70746173 18.8634662 50.21862847 13 60.3125 C12.56558594 61.11816406 12.13117188 61.92382812 11.68359375 62.75390625 C5.60807213 72.98363069 -4.85977417 79.86563471 -16.26171875 82.91796875 C-30.88757944 85.02526109 -44.15059322 83.6430859 -56.3125 74.6875 C-66.95247715 65.46618647 -73.16055134 53.73928078 -74.19140625 39.70703125 C-74.72397886 26.42707549 -69.83434239 14.89599145 -60.96875 5.05859375 C-43.86446445 -11.27104119 -19.48139024 -13.32083965 0 0 Z " fill="#F3F0EC" transform="translate(816,431.6875)"/>
<path d="M0 0 C8.87067701 5.7652212 14.25640422 12.6976066 18.6875 22.25 C19.02910156 22.95640625 19.37070312 23.6628125 19.72265625 24.390625 C23.4335139 33.43476179 23.01183318 45.78411283 19.72265625 54.88671875 C13.76097635 68.49734645 5.97477103 76.91822313 -7.50390625 83.28515625 C-18.0506468 87.22872011 -32.69327882 87.04825697 -42.96484375 82.5078125 C-55.452366 75.81732637 -64.50869722 67.20145442 -68.90576172 53.38598633 C-72.33974857 40.89221702 -71.2625261 28.1981241 -64.9921875 16.86328125 C-57.67028761 5.08022378 -48.02491137 -2.26494719 -34.73828125 -6.01953125 C-22.42077372 -8.64595532 -10.90657627 -6.1036803 0 0 Z " fill="#F3F0EC" transform="translate(476.3125,429.75)"/>
<path d="M0 0 C9.60629079 7.13655993 16.81939969 16.81272839 19.33984375 28.73828125 C20.32722744 44.92489911 17.99646186 56.93773436 7.66796875 69.82421875 C0.93817809 77.33052372 -9.49054718 83.18401873 -19.65014648 83.87329102 C-34.68104355 84.55776399 -45.80767341 82.68097865 -57.66015625 72.73828125 C-63.92887785 66.92046769 -67.65780269 60.70964632 -70.66015625 52.73828125 C-71.20736328 51.33642578 -71.20736328 51.33642578 -71.765625 49.90625 C-75.00829184 38.42239496 -72.90826936 26.23450747 -67.66015625 15.73828125 C-61.2273925 5.17130953 -52.12855565 -1.91709505 -40.66015625 -6.26171875 C-39.54640625 -6.69484375 -38.43265625 -7.12796875 -37.28515625 -7.57421875 C-23.99484932 -10.0947942 -11.31650992 -7.39149675 0 0 Z " fill="#F3F0EC" transform="translate(646.66015625,431.26171875)"/>
<path d="M0 0 C8.31841646 5.0812002 15.55176961 12.15652049 17.9765625 21.83984375 C19.52797152 31.91647126 18.64891694 40.60791927 13.37890625 49.453125 C7.92718246 56.7851372 1.24376023 61.23424458 -7.62109375 63.453125 C-17.69911589 64.70311224 -26.00645093 63.50127423 -34.28125 57.53515625 C-41.11694873 51.84713006 -44.83249898 45.81890932 -47.62109375 37.453125 C-48.29190159 28.89757578 -48.07445839 21.89594549 -43.62109375 14.453125 C-43.02296875 13.40125 -42.42484375 12.349375 -41.80859375 11.265625 C-31.90518202 -1.46733293 -15.15905262 -7.09253862 0 0 Z " fill="#F2F0EC" transform="translate(548.62109375,693.546875)"/>
<path d="M0 0 C7.26927243 5.19976569 13.39202076 11.5472002 15.6015625 20.4140625 C17.29323932 31.39337677 15.57955811 41.02328942 9.375 50.3125 C4.48812661 56.35287396 -2.60769649 59.95690104 -10 62 C-20.11066763 63.03023391 -28.47671424 62.1464667 -36.6953125 55.9765625 C-44.55898463 49.25919826 -49.35162916 42.5839741 -50.2578125 31.984375 C-50.51304873 24.66760299 -49.70830648 19.32214751 -46 13 C-45.4225 11.96875 -44.845 10.9375 -44.25 9.875 C-33.30094757 -4.11545588 -16.06662209 -8.85449395 0 0 Z " fill="#F2F0EC" transform="translate(672,695)"/>
<path d="M0 0 C7.7665453 5.32402308 13.24429917 11.92870465 16 21 C17.42091761 30.77010503 16.19861106 39.5416538 11 48 C5.19716732 55.4752158 -1.69939897 60.13302852 -11 62 C-22.50712372 62.95113082 -30.50650122 61.24614715 -39.375 53.75 C-43.42210003 49.88685906 -46.12713773 46.26233583 -48 41 C-48.35320312 40.0615625 -48.70640625 39.123125 -49.0703125 38.15625 C-51.33953247 30.45234353 -51.00139628 22.20152926 -47.2578125 15.0546875 C-42.14653738 6.70521323 -35.91054722 -0.38701199 -26.3203125 -3.52734375 C-17.19947027 -5.38529309 -8.18454054 -4.4808538 0 0 Z " fill="#F2F0EC" transform="translate(430,695)"/>
<path d="M0 0 C0.86012695 0.22502197 1.72025391 0.45004395 2.60644531 0.68188477 C58.26820357 15.43052334 114.73019778 42.93425119 151 89 C151.74378906 89.92683594 152.48757813 90.85367188 153.25390625 91.80859375 C164.98616979 106.84629502 177.49282972 127.75481967 180 147 C179.68359375 149.22265625 179.68359375 149.22265625 179 151 C178.34 151.33 177.68 151.66 177 152 C176.79246094 150.9584375 176.58492187 149.916875 176.37109375 148.84375 C174.13428146 138.21607844 170.78798222 128.73522136 166 119 C165.18015625 117.31777344 165.18015625 117.31777344 164.34375 115.6015625 C152.17631303 91.89801784 133.2954459 71.74201339 112 56 C111.34902344 55.5153125 110.69804688 55.030625 110.02734375 54.53125 C80.39791473 32.60889789 47.05867662 17.93540069 12 7 C11.14438477 6.72704102 10.28876953 6.45408203 9.40722656 6.17285156 C-29.74882512 -6.2350003 -71.18045946 -10.43496743 -112.0625 -10.375 C-112.74076591 -10.3749081 -113.41903183 -10.37481621 -114.11785126 -10.37472153 C-136.62340876 -10.37078903 -158.74350651 -9.5021206 -181 -6 C-181.98175201 -5.84794098 -181.98175201 -5.84794098 -182.9833374 -5.69281006 C-197.1389524 -3.49465217 -211.21462787 -0.9279554 -225 3 C-226.03753418 3.2882666 -227.07506836 3.5765332 -228.14404297 3.87353516 C-246.64733433 9.04751386 -264.37468648 15.28276081 -282 23 C-283.22614014 23.53125488 -283.22614014 23.53125488 -284.47705078 24.07324219 C-302.50502937 31.95239786 -319.33553242 42.00802905 -335.16699219 53.65576172 C-338.09053807 55.79974728 -341.04654378 57.89747496 -344 60 C-344 58.68 -344 57.36 -344 56 C-341.97354726 54.13541445 -340.05906429 52.62327999 -337.8125 51.0625 C-337.15121094 50.59158936 -336.48992187 50.12067871 -335.80859375 49.63549805 C-287.45387423 15.74402053 -230.41651674 -3.7302795 -172 -11 C-171.22962402 -11.09764648 -170.45924805 -11.19529297 -169.66552734 -11.29589844 C-113.47160585 -18.25714752 -54.66605377 -14.81015473 0 0 Z " fill="#E3E9EC" transform="translate(638,555)"/>
<path d="M0 0 C0 0.66 0 1.32 0 2 C-0.76852295 2.25579834 -1.5370459 2.51159668 -2.32885742 2.77514648 C-23.57915214 9.88285627 -44.2259178 17.66090613 -64.13671875 28.03369141 C-65.97966451 28.98945389 -67.83242915 29.92350242 -69.6875 30.85546875 C-83.72096884 38.00508531 -97.0191199 46.7650773 -109 57 C-109.66 56.67 -110.32 56.34 -111 56 C-109.68710097 52.98121445 -108.47419809 51.30128538 -105.7890625 49.40625 C-104.80280884 48.70580566 -104.80280884 48.70580566 -103.79663086 47.99121094 C-103.07999268 47.49911133 -102.36335449 47.00701172 -101.625 46.5 C-100.87549072 45.97954102 -100.12598145 45.45908203 -99.35375977 44.92285156 C-86.12750267 35.8613484 -72.33937486 27.75452027 -57.85302734 20.88378906 C-56.06648097 20.03170766 -54.29268496 19.1530491 -52.51953125 18.2734375 C-14.92965183 0 -14.92965183 0 0 0 Z " fill="#E7ECEF" transform="translate(404,558)"/>
<path d="M0 0 C0.66 0.99 1.32 1.98 2 3 C-8.56 3.99 -19.12 4.98 -30 6 C-30.66 5.01 -31.32 4.02 -32 3 C-27.98000981 2.49306328 -23.95889046 1.9956961 -19.9375 1.5 C-18.80376953 1.35691406 -17.67003906 1.21382812 -16.50195312 1.06640625 C-4.29238386 -0.42864305 -4.29238386 -0.42864305 0 0 Z " fill="#DEE4E8" transform="translate(492,542)"/>
<path d="M0 0 C-3.67060668 5.02293546 -8.88390571 5.52307259 -14.625 6.75 C-15.59179688 6.97042969 -16.55859375 7.19085937 -17.5546875 7.41796875 C-24.59030474 9 -24.59030474 9 -27 9 C-27.33 8.01 -27.66 7.02 -28 6 C-24.27349238 4.98990734 -20.54340541 3.99371446 -16.8125 3 C-15.75740234 2.71382812 -14.70230469 2.42765625 -13.61523438 2.1328125 C-12.59365234 1.86210938 -11.57207031 1.59140625 -10.51953125 1.3125 C-9.58214111 1.06113281 -8.64475098 0.80976562 -7.67895508 0.55078125 C-5.03746727 0.0077031 -2.68782684 -0.1023122 0 0 Z " fill="#E0E6E9" transform="translate(431,551)"/>
<path d="M0 0 C0.66 0.66 1.32 1.32 2 2 C1.64700993 5.44165321 0.95418308 7.06872538 -1 10 C-2.07188249 14.05327748 -2.28948036 18.13919972 -2.5625 22.3125 C-2.64628906 23.56675781 -2.73007812 24.82101562 -2.81640625 26.11328125 C-2.87699219 27.06589844 -2.93757812 28.01851563 -3 29 C-6.14575563 24.28136655 -5.54678291 19.52572373 -5 14 C-3.76922693 9.17158256 -2.23197372 4.46394744 0 0 Z " fill="#DDE1E3" transform="translate(747,448)"/>
<path d="M0 0 C0.99 0 1.98 0 3 0 C2.51602818 4.35574636 1.20957142 6.0913259 -2 9 C-2.33 9.66 -2.66 10.32 -3 11 C-3.99 11 -4.98 11 -6 11 C-6 11.66 -6 12.32 -6 13 C-6.99 13.66 -7.98 14.32 -9 15 C-9.99 14.67 -10.98 14.34 -12 14 C-11.30132813 13.24074219 -10.60265625 12.48148438 -9.8828125 11.69921875 C-8.96343578 10.69540947 -8.04417079 9.69149785 -7.125 8.6875 C-6.66480469 8.18798828 -6.20460938 7.68847656 -5.73046875 7.17382812 C-3.61393392 4.85790957 -1.74473617 2.61710426 0 0 Z " fill="#E9EAEA" transform="translate(997,586)"/>
<path d="M0 0 C8.31616812 0.58359075 16.01459326 2.73799414 24 5 C24 5.66 24 6.32 24 7 C18.3444819 6.39496146 12.99786009 5.37814297 7.5 3.9375 C6.77296875 3.75123047 6.0459375 3.56496094 5.296875 3.37304688 C3.53012276 2.91973545 1.76489225 2.4604998 0 2 C0 1.34 0 0.68 0 0 Z " fill="#E4E9ED" transform="translate(621,552)"/>
<path d="M0 0 C0 0.33 0 0.66 0 1 C-0.90492188 1.07347656 -0.90492188 1.07347656 -1.828125 1.1484375 C-2.62734375 1.22320313 -3.4265625 1.29796875 -4.25 1.375 C-5.43335938 1.47941406 -5.43335938 1.47941406 -6.640625 1.5859375 C-9.09693417 2.01701163 -10.82042207 2.81920082 -13 4 C-13.9590625 4.2165625 -13.9590625 4.2165625 -14.9375 4.4375 C-17.19346119 4.94784316 -17.19346119 4.94784316 -19.625 6.625 C-20.40875 7.07875 -21.1925 7.5325 -22 8 C-22.66 7.67 -23.32 7.34 -24 7 C-23 4 -23 4 -21.171875 2.83203125 C-14.01594217 -0.18038563 -7.70220866 -0.43460739 0 0 Z " fill="#E1E4E7" transform="translate(419,691)"/>
<path d="M0 0 C0 0.99 0 1.98 0 3 C-8.415 3.495 -8.415 3.495 -17 4 C-17 4.66 -17 5.32 -17 6 C-17.66 6 -18.32 6 -19 6 C-19.33 6.66 -19.66 7.32 -20 8 C-20.66 7.34 -21.32 6.68 -22 6 C-21.625 3.875 -21.625 3.875 -21 2 C-13.94887561 -0.21211746 -7.35342179 -0.20177072 0 0 Z " fill="#D7DADB" transform="translate(458,423)"/>
<path d="M0 0 C0.99 0.33 1.98 0.66 3 1 C4.203125 4.01953125 4.203125 4.01953125 5.25 7.8125 C5.60578125 9.05644531 5.9615625 10.30039062 6.328125 11.58203125 C7.24755451 16.25936163 7.24755451 16.25936163 6 19 C5.34 19.33 4.68 19.66 4 20 C3.32923511 17.23010036 2.66323683 14.45920258 2 11.6875 C1.80921875 10.90181641 1.6184375 10.11613281 1.421875 9.30664062 C1.24140625 8.54931641 1.0609375 7.79199219 0.875 7.01171875 C0.70742188 6.31522217 0.53984375 5.61872559 0.3671875 4.90112305 C0 3 0 3 0 0 Z " fill="#DBE0E4" transform="translate(811,687)"/>
<path d="M0 0 C0.78890625 0.10828125 1.5778125 0.2165625 2.390625 0.328125 C8.02840909 1.21022727 8.02840909 1.21022727 10.6875 1.6875 C9.6975 2.1825 9.6975 2.1825 8.6875 2.6875 C8.6875 3.3475 8.6875 4.0075 8.6875 4.6875 C3.4075 3.6975 -1.8725 2.7075 -7.3125 1.6875 C-4.03910644 -0.49476237 -3.64648617 -0.522726 0 0 Z " fill="#DBE0E4" transform="translate(612.3125,549.3125)"/>
<path d="M0 0 C1.58468677 0.45363171 3.16769924 0.91311452 4.75 1.375 C5.63171875 1.63023437 6.5134375 1.88546875 7.421875 2.1484375 C9.76080572 2.9209934 11.83442562 3.83625676 14 5 C14 5.66 14 6.32 14 7 C8.72 5.68 3.44 4.36 -2 3 C-1.34 2.67 -0.68 2.34 0 2 C0 1.34 0 0.68 0 0 Z " fill="#D9E0E4" transform="translate(645,557)"/>
<path d="M0 0 C0.66 0.99 1.32 1.98 2 3 C-1.3 5.64 -4.6 8.28 -8 11 C-8.66 10.67 -9.32 10.34 -10 10 C-8.5741914 6.54804233 -6.90253666 4.8985744 -3.875 2.75 C-3.15054687 2.22921875 -2.42609375 1.7084375 -1.6796875 1.171875 C-1.12539063 0.78515625 -0.57109375 0.3984375 0 0 Z " fill="#DFE8EB" transform="translate(303,604)"/>
<path d="M0 0 C0.99 0 1.98 0 3 0 C3 0.66 3 1.32 3 2 C3.66 2.33 4.32 2.66 5 3 C2.47376214 5.52623786 -0.24530578 7.72438303 -3 10 C-3.75 8.375 -3.75 8.375 -4 6 C-2.25 2.75 -2.25 2.75 0 0 Z " fill="#E9EAE9" transform="translate(1008,570)"/>
<path d="M0 0 C2 3 2 3 3 6 C1.4045651 8.05727132 -0.26526288 10.05874656 -2 12 C-2.33 12.66 -2.66 13.32 -3 14 C-3.66 14 -4.32 14 -5 14 C-3.46527032 9.27775484 -1.76054874 4.64144669 0 0 Z " fill="#E4E7E8" transform="translate(810,769)"/>
<path d="M0 0 C0.33 0.99 0.66 1.98 1 3 C-5.435 3.495 -5.435 3.495 -12 4 C-12.66 3.01 -13.32 2.02 -14 1 C-9.23692563 0.04738513 -4.8333472 -0.08333357 0 0 Z " fill="#D0D5DA" transform="translate(474,544)"/>
<path d="M0 0 C-1 2 -1 2 -2.92578125 2.66796875 C-3.71339844 2.83941406 -4.50101562 3.01085937 -5.3125 3.1875 C-6.09238281 3.36667969 -6.87226563 3.54585937 -7.67578125 3.73046875 C-10.09204759 4.01067443 -11.70242952 3.74132137 -14 3 C-10.17190555 -0.82809445 -5.1539534 -0.10105791 0 0 Z " fill="#EDF1F3" transform="translate(444,549)"/>
<path d="M0 0 C-0.33 0.99 -0.66 1.98 -1 3 C-6.61 2.67 -12.22 2.34 -18 2 C-18 1.67 -18 1.34 -18 1 C-12.03325384 -0.32594359 -6.07416385 -0.0884587 0 0 Z " fill="#D1D8DC" transform="translate(574,543)"/>
<path d="M0 0 C-6.435 2.97 -6.435 2.97 -13 6 C-13.33 4.68 -13.66 3.36 -14 2 C-10.97265625 1.26757812 -10.97265625 1.26757812 -7.9453125 0.53515625 C-3.14340344 -0.78585086 -3.14340344 -0.78585086 0 0 Z " fill="#E1E4E6" transform="translate(384,276)"/>
<path d="M0 0 C0 3.86695678 -1.41909971 6.5088452 -3 10 C-3.66 9.34 -4.32 8.68 -5 8 C-6.98 8.99 -6.98 8.99 -9 10 C-8.06409496 8.8944811 -7.12620142 7.79064547 -6.1875 6.6875 C-5.66542969 6.07261719 -5.14335937 5.45773437 -4.60546875 4.82421875 C-3.12827531 3.14575321 -1.59960869 1.56117966 0 0 Z " fill="#2A3543" transform="translate(489,497)"/>
<path d="M0 0 C0.99 0.33 1.98 0.66 3 1 C2.01 3.31 1.02 5.62 0 8 C-0.99 8 -1.98 8 -3 8 C-1.125 1.125 -1.125 1.125 0 0 Z " fill="#E7E9EA" transform="translate(505,708)"/>
<path d="M0 0 C1.43791516 0.14168137 2.8753237 0.28851043 4.3125 0.4375 C5.11300781 0.51871094 5.91351562 0.59992187 6.73828125 0.68359375 C9 1 9 1 12 2 C12 2.66 12 3.32 12 4 C3.42857143 3.14285714 3.42857143 3.14285714 0 1 C0 0.67 0 0.34 0 0 Z " fill="#ECF2F4" transform="translate(633,555)"/>
<path d="M0 0 C0.66 0.33 1.32 0.66 2 1 C2 1.66 2 2.32 2 3 C1.34 3 0.68 3 0 3 C0 3.66 0 4.32 0 5 C-1.95927063 6.7143618 -3.95880212 8.38405168 -6 10 C-6.66 9.67 -7.32 9.34 -8 9 C-5.36 6.03 -2.72 3.06 0 0 Z " fill="#2A3642" transform="translate(278,354)"/>
<path d="M0 0 C0 3.66842255 -0.79029126 5.10451959 -3 8 C-5.6875 8.8125 -5.6875 8.8125 -8 9 C-7.34 8.01 -6.68 7.02 -6 6 C-5.34 6 -4.68 6 -4 6 C-3.71125 5.38125 -3.4225 4.7625 -3.125 4.125 C-2 2 -2 2 0 0 Z " fill="#DEE1E3" transform="translate(779,820)"/>
<path d="M0 0 C0.66 0.33 1.32 0.66 2 1 C-0.64 3.97 -3.28 6.94 -6 10 C-7 7 -7 7 -6 4 C-5.34 3.67 -4.68 3.34 -4 3 C-2.65724831 2.01268258 -1.32267727 1.01405257 0 0 Z " fill="#2A3742" transform="translate(633,697)"/>
<path d="M0 0 C2 4 2 4 1.5390625 6.359375 C1.23742187 7.14828125 0.93578125 7.9371875 0.625 8.75 C0.32851563 9.54921875 0.03203125 10.3484375 -0.2734375 11.171875 C-0.51320313 11.77515625 -0.75296875 12.3784375 -1 13 C-1.66 13 -2.32 13 -3 13 C-2.01 8.71 -1.02 4.42 0 0 Z " fill="#D8DDDF" transform="translate(814,755)"/>
<path d="M0 0 C-1.75 2 -1.75 2 -4 4 C-5.32 4 -6.64 4 -8 4 C-8.33 3.01 -8.66 2.02 -9 1 C-5.92677456 0.08941469 -3.19902639 -0.08886184 0 0 Z " fill="#D5DDE1" transform="translate(431,551)"/>
<path d="M0 0 C2.875 -0.1875 2.875 -0.1875 6 0 C6.66 0.99 7.32 1.98 8 3 C5.69 3.33 3.38 3.66 1 4 C0.67 2.68 0.34 1.36 0 0 Z " fill="#293847" transform="translate(623,898)"/>
<path d="M0 0 C0.66 0 1.32 0 2 0 C4.125 6.5 4.125 6.5 3 11 C1.68 7.7 0.36 4.4 -1 1 C-0.67 0.67 -0.34 0.34 0 0 Z " fill="#E7EBED" transform="translate(409,483)"/>
<path d="M0 0 C2.64 0.99 5.28 1.98 8 3 C6.68 3.33 5.36 3.66 4 4 C3.01 4.495 3.01 4.495 2 5 C-0.125 4.0625 -0.125 4.0625 -2 3 C-1 1 -1 1 0 0 Z " fill="#E7E9E9" transform="translate(804,426)"/>
<path d="M0 0 C1.65 1.65 3.3 3.3 5 5 C2.69 5.66 0.38 6.32 -2 7 C-1.34 4.69 -0.68 2.38 0 0 Z " fill="#38424B" transform="translate(215,962)"/>
<path d="M0 0 C0.33 0.99 0.66 1.98 1 3 C-0.62339805 4.70884005 -2.29319053 6.37446717 -4 8 C-4.66 8 -5.32 8 -6 8 C-6.33 7.01 -6.66 6.02 -7 5 C-6.21625 4.731875 -5.4325 4.46375 -4.625 4.1875 C-1.71885077 3.15185568 -1.71885077 3.15185568 0 0 Z " fill="#F4F8F9" transform="translate(438,742)"/>
<path d="M0 0 C1.32 0.33 2.64 0.66 4 1 C3.21654285 2.17219543 2.42297164 3.33763668 1.625 4.5 C1.18414062 5.1496875 0.74328125 5.799375 0.2890625 6.46875 C-0.13632813 6.9740625 -0.56171875 7.479375 -1 8 C-1.66 8 -2.32 8 -3 8 C-1.125 2.25 -1.125 2.25 0 0 Z " fill="#384552" transform="translate(247,669)"/>
<path d="M0 0 C1.32 0.66 2.64 1.32 4 2 C2.75023244 5.65316671 2.32901247 6.78065836 -1 9 C-0.814375 8.4225 -0.62875 7.845 -0.4375 7.25 C0.04182379 4.78490621 -0.34273163 3.38259782 -1 1 C-0.67 0.67 -0.34 0.34 0 0 Z " fill="#293947" transform="translate(996,579)"/>
<path d="M0 0 C0.33 0 0.66 0 1 0 C1.06058594 0.75925781 1.12117187 1.51851563 1.18359375 2.30078125 C1.26738281 3.29464844 1.35117187 4.28851563 1.4375 5.3125 C1.51871094 6.29863281 1.59992187 7.28476562 1.68359375 8.30078125 C1.91812559 11.09375599 1.91812559 11.09375599 3 14 C2.34 14.66 1.68 15.32 1 16 C-0.50156874 12.99686252 -0.09281204 10.20932478 -0.0625 6.875 C-0.05347656 5.59367187 -0.04445313 4.31234375 -0.03515625 2.9921875 C-0.02355469 2.00476563 -0.01195312 1.01734375 0 0 Z " fill="#5D6978" transform="translate(834,464)"/>
<path d="M0 0 C2.3125 0.1875 2.3125 0.1875 5 1 C6.8125 3.5625 6.8125 3.5625 8 6 C5 6 5 6 3.61328125 4.6875 C2.40885417 3.125 1.20442708 1.5625 0 0 Z " fill="#DDE2E5" transform="translate(972,337)"/>
<path d="M0 0 C0.66 0.33 1.32 0.66 2 1 C-1.465 3.97 -1.465 3.97 -5 7 C-5 5.35 -5 3.7 -5 2 C-2.625 0.9375 -2.625 0.9375 0 0 Z " fill="#2C3642" transform="translate(512,697)"/>
<path d="M0 0 C0.33 0.66 0.66 1.32 1 2 C-1.64 2.33 -4.28 2.66 -7 3 C-7.33 2.01 -7.66 1.02 -8 0 C-4.97878489 -0.97110486 -2.99536737 -1.13617383 0 0 Z " fill="#D4D9DD" transform="translate(450,548)"/>
<path d="M0 0 C-0.33 1.98 -0.66 3.96 -1 6 C-4 6 -4 6 -6 5 C-4.87312259 1.61936778 -3.78825335 0 0 0 Z " fill="#E9EBE8" transform="translate(432,428)"/>
<path d="M0 0 C0.625 1.875 0.625 1.875 1 4 C0.34 4.66 -0.32 5.32 -1 6 C-3.125 5.625 -3.125 5.625 -5 5 C-3.35 3.35 -1.7 1.7 0 0 Z " fill="#DFE2E5" transform="translate(770,829)"/>
<path d="M0 0 C2.72426311 2.35277269 3.8141763 4.62496331 5 8 C3.68 8 2.36 8 1 8 C0.67 5.36 0.34 2.72 0 0 Z " fill="#E5E9EB" transform="translate(681,704)"/>
<path d="M0 0 C2.22050056 2.22050056 2.57774742 2.9597814 3 6 C2.72949547 8.00946222 2.40632091 10.01354224 2 12 C1.67 12 1.34 12 1 12 C0.01751476 7.9472484 -0.08159574 4.16138263 0 0 Z " fill="#F7F9FA" transform="translate(816,704)"/>
<path d="M0 0 C0.99 0.33 1.98 0.66 3 1 C2.360625 1.61875 1.72125 2.2375 1.0625 2.875 C-1.03883584 4.82597612 -1.03883584 4.82597612 -2 7 C-2.99 6.67 -3.98 6.34 -5 6 C-3.35 4.02 -1.7 2.04 0 0 Z " fill="#38444E" transform="translate(654,500)"/>
<path d="M0 0 C0.33 1.32 0.66 2.64 1 4 C-0.8125 5.5625 -0.8125 5.5625 -3 7 C-3.99 6.67 -4.98 6.34 -6 6 C-4.02 4.02 -2.04 2.04 0 0 Z " fill="#E0E4E8" transform="translate(759,433)"/>
<path d="M0 0 C-0.33 0.66 -0.66 1.32 -1 2 C-1.99 2 -2.98 2 -4 2 C-4 2.66 -4 3.32 -4 4 C-5.65 3.67 -7.3 3.34 -9 3 C-5.92807025 0.26939578 -4.09590633 -0.34132553 0 0 Z " fill="#E6E9EA" transform="translate(727,865)"/>
<path d="M0 0 C0 0.99 0 1.98 0 3 C-2.5 4.6875 -2.5 4.6875 -5 6 C-5 4.68 -5 3.36 -5 2 C-3.35 1.34 -1.7 0.68 0 0 Z " fill="#384551" transform="translate(363,574)"/>
</svg>
