<svg width="513" height="343" viewBox="0 0 513 343" fill="none" xmlns="http://www.w3.org/2000/svg">
<g clip-path="url(#clip0_3_2381)">
<path d="M0 0.994141H513V342.994H0V0.994141Z" fill="#ED2024"/>
<path d="M185.25 70.5337V161.734L225.72 175.984L197.22 203.914L210.9 221.014L241.11 189.664L247.95 202.774L230.85 230.704L251.37 262.624L241.11 277.444L257.07 297.964L272.46 276.874L263.91 262.054L281.01 228.994L265.62 202.774L272.46 189.664L302.1 221.014L316.35 204.484L286.71 175.414L327.75 160.594V70.5337L298.11 81.3637L297.54 103.024L278.73 104.734V89.9137L288.42 76.8037L320.34 64.2637L307.23 61.9837L315.21 55.1437L320.34 57.4237L315.78 49.4437L307.8 52.2937L302.1 46.0237L270.75 52.2937L278.73 58.5637L257.07 86.4937L235.41 59.1337L242.82 52.8637L214.32 46.0237L206.34 52.2937L197.79 50.0137L193.23 57.9937L198.36 54.5737L207.48 60.8437L194.37 63.6937L225.72 75.0937L234.84 88.2037V104.734L216.03 103.024V82.5037L185.25 70.5337Z" fill="#212121"/>
<path d="M149.34 143.494H185.82V157.744H149.34V143.494ZM149.34 120.124H185.82V135.514H149.34V120.124ZM149.34 96.1838H185.82V111.004H149.34V96.1838ZM149.34 73.3838H185.82V87.6338H149.34V73.3838Z" fill="#212121"/>
<path d="M327.18 143.494H363.66V157.744H327.18V143.494ZM327.18 120.124H363.66V135.514H327.18V120.124ZM327.18 96.1838H363.66V111.004H327.18V96.1838ZM327.18 73.3838H363.66V87.6338H327.18V73.3838Z" fill="#212121"/>
<path d="M304.38 206.765H340.86V217.595H304.38V206.765ZM172.14 206.765H208.62V217.595H172.14V206.765Z" fill="#212121"/>
</g>
<defs>
<clipPath id="clip0_3_2381">
<rect width="513" height="342" fill="white" transform="translate(0 0.994141)"/>
</clipPath>
</defs>
</svg>
