<svg width="513" height="343" viewBox="0 0 513 343" fill="none" xmlns="http://www.w3.org/2000/svg">
<g clip-path="url(#clip0_3_2247)">
<path d="M0 0.953125H513V342.953H0V0.953125Z" fill="#C8102E"/>
<path d="M0 1.05322H256.5V172.053H0V1.05322Z" fill="#012169"/>
<path d="M256 0.953125H233.4L160 49.8531V0.953125H96V49.8531L22.6 0.953125H0V23.6531L46.1 54.3531H0V118.353H46.1L0 149.053V171.653H22.6L96 122.753V171.653H160V122.753L233.4 171.653H256V149.053L209.9 118.353H256V54.3531H209.9L256 23.6531V0.953125Z" fill="white"/>
<path d="M144 0.953125H112V70.3531H0V102.353H112V171.653H144V102.353H256V70.3531H144V0.953125Z" fill="#C8102E"/>
<path d="M0 171.653V160.653L62.5 118.353H85.1L7.3 171.653H0ZM7.3 1.05322L85.1 54.2532H62.5L0 12.0532V1.05322H7.3ZM256 1.05322V12.0532L193.5 54.3532H170.9L248.7 1.05322H256ZM248.7 171.653L170.9 118.353H193.5L256 160.653V171.653H248.7Z" fill="#C8102E"/>
<path d="M316.9 100.893V200.583C316.9 260.393 396.65 300.273 396.65 300.273C396.65 300.273 476.4 260.393 476.4 200.583V100.893H316.9Z" fill="white"/>
<path d="M449.37 260.393H343.93C367.06 285.473 396.65 300.273 396.65 300.273C396.65 300.273 426.24 285.473 449.37 260.393Z" fill="#2F8F22"/>
<path d="M396.65 260.393C418.675 260.393 436.53 242.538 436.53 220.513C436.53 198.488 418.675 180.633 396.65 180.633C374.625 180.633 356.77 198.488 356.77 220.513C356.77 242.538 374.625 260.393 396.65 260.393Z" fill="#65B5D2"/>
<path d="M356.77 220.523C367.783 220.523 376.71 211.596 376.71 200.583C376.71 189.571 367.783 180.643 356.77 180.643C345.757 180.643 336.83 189.571 336.83 200.583C336.83 211.596 345.757 220.523 356.77 220.523Z" fill="#C8102E"/>
<path d="M436.52 220.523C447.533 220.523 456.46 211.596 456.46 200.583C456.46 189.571 447.533 180.643 436.52 180.643C425.507 180.643 416.58 189.571 416.58 200.583C416.58 211.596 425.507 220.523 436.52 220.523Z" fill="#C8102E"/>
<path d="M396.65 180.643C407.663 180.643 416.59 171.716 416.59 160.703C416.59 149.691 407.663 140.763 396.65 140.763C385.637 140.763 376.71 149.691 376.71 160.703C376.71 171.716 385.637 180.643 396.65 180.643Z" fill="#C8102E"/>
</g>
<defs>
<clipPath id="clip0_3_2247">
<rect width="513" height="342" fill="white" transform="translate(0 0.953125)"/>
</clipPath>
</defs>
</svg>
