<svg width="513" height="343" viewBox="0 0 513 343" fill="none" xmlns="http://www.w3.org/2000/svg">
<g clip-path="url(#clip0_3_2392)">
<path d="M0 0.892578H513V342.893H0V0.892578Z" fill="#003893"/>
<path d="M0 183.093H513V224.493H0V183.093Z" fill="#CF2027"/>
<path d="M0 141.693H513V183.093H0V141.693ZM0 224.493H513V265.893H0V224.493Z" fill="white"/>
<path d="M150.4 70.8926L157.3 91.9926H179.5L161.5 105.093L168.4 126.193L150.4 113.093L132.5 126.193L139.3 105.093L121.4 91.9926H143.6L150.4 70.8926ZM150.4 280.593L157.3 301.693H179.5L161.5 314.693L168.4 335.893L150.4 322.793L132.5 335.893L139.3 314.693L121.4 301.693H143.6L150.4 280.593ZM52.7999 209.693L59.6999 230.793H81.8999L63.8999 243.793L70.7999 264.993L52.7999 251.893L34.8999 264.993L41.6999 243.793L23.7999 230.793H45.9999L52.7999 209.693ZM90.0999 91.8926L96.9999 112.993H119.2L101.2 125.993L108.1 147.193L90.0999 134.093L72.1999 147.193L78.9999 125.993L60.9999 112.993H83.2999L90.0999 91.8926ZM23.7999 162.893H45.9999L52.7999 141.793L59.6999 162.893H81.8999L63.8999 175.993L70.7999 197.093L52.7999 184.093L34.8999 197.093L41.6999 175.993L23.7999 162.893ZM72.1999 311.793L78.9999 290.693L60.9999 277.693H83.2999L90.0999 256.493L96.9999 277.693H119.2L101.2 290.693L108.1 311.793L90.0999 298.793L72.1999 311.793ZM248 209.693L241.1 230.793H218.9L236.9 243.793L230 264.993L248 251.893L266 264.993L259.1 243.793L277.1 230.793H254.9L248 209.693ZM210.7 91.8926L203.9 112.993H181.7L199.6 125.993L192.8 147.193L210.7 134.093L228.7 147.193L221.8 125.993L239.8 112.993H217.6L210.7 91.8926ZM277.1 162.893H254.9L248 141.793L241.1 162.893H218.9L236.9 175.993L230 197.093L248 184.093L266 197.093L259.1 175.993L277.1 162.893ZM228.7 311.793L221.8 290.693L239.8 277.693H217.6L210.7 256.493L203.9 277.693H181.7L199.6 290.693L192.8 311.793L210.7 298.793L228.7 311.793Z" fill="#F7D116"/>
<path fill-rule="evenodd" clip-rule="evenodd" d="M150.396 69.2732L157.663 91.4925H181.037L162.088 105.283L169.356 127.506L150.401 113.711L131.551 127.506L138.713 105.283L119.87 91.4925H143.236L150.396 69.2732ZM150.403 72.5118L143.964 92.4925H122.93L139.887 104.902L133.449 124.879L150.399 112.473L167.444 124.879L160.912 104.902L177.963 92.4925H156.937L150.403 72.5118ZM90.0965 90.2732L97.3625 112.492H120.746L101.788 126.184L109.053 148.504L90.1008 134.711L71.2541 148.504L78.413 126.185L59.4537 112.492H82.9358L90.0965 90.2732ZM210.696 90.2732L217.963 112.492H241.346L222.388 126.184L229.653 148.504L210.701 134.711L191.854 148.504L199.013 126.184L180.161 112.492H203.536L210.696 90.2732ZM90.1034 93.5118L83.6641 113.492H62.5462L79.5869 125.8L73.1458 145.881L90.0991 133.473L107.147 145.881L100.612 125.801L117.654 113.492H96.6374L90.1034 93.5118ZM210.703 93.5117L204.264 113.492H183.239L200.187 125.801L193.746 145.881L210.699 133.473L227.747 145.881L221.212 125.801L238.254 113.492H217.237L210.703 93.5117ZM52.7965 140.173L60.0625 162.392H83.4367L64.4882 176.183L71.7527 198.397L52.8008 184.71L33.9541 198.397L41.1133 176.183L22.2701 162.392H45.6358L52.7965 140.173ZM248 140.184L255.262 162.392H278.637L259.688 176.183L266.953 198.397L248 184.709L229.047 198.397L236.312 176.183L217.363 162.392H240.737L248 140.184ZM52.8034 143.412L46.3641 163.392H25.3298L42.2866 175.802L35.8458 195.788L52.7991 183.475L69.8472 195.788L63.3117 175.802L80.3632 163.392H59.3374L52.8034 143.412ZM248 143.401L241.463 163.392H220.437L237.488 175.802L230.953 195.788L248 183.476L265.047 195.788L258.512 175.802L275.563 163.392H254.537L248 143.401ZM52.7965 208.073L60.0625 230.292H83.4462L64.4882 243.984L71.7527 266.304L52.8008 252.511L33.9541 266.304L41.1133 243.984L22.2606 230.292H45.6358L52.7965 208.073ZM248 208.084L255.262 230.292H278.646L259.688 243.984L266.953 266.304L248 252.511L229.047 266.304L236.312 243.984L217.354 230.292H240.737L248 208.084ZM52.8034 211.312L46.3641 231.292H25.3393L42.2866 243.601L35.8458 263.681L52.7991 251.273L69.8472 263.681L63.3117 243.601L80.3537 231.292H59.3374L52.8034 211.312ZM248 211.301L241.463 231.292H220.446L237.488 243.601L230.953 263.681L248 251.274L265.047 263.681L258.512 243.601L275.554 231.292H254.537L248 211.301ZM90.0965 254.866L97.363 277.192H120.746L101.789 290.884L109.053 313.097L90.1008 299.41L71.2541 313.097L78.4126 290.885L59.4537 277.192H82.9352L90.0965 254.866ZM210.696 254.866L217.963 277.192H241.346L222.389 290.884L229.653 313.097L210.701 299.41L191.854 313.097L199.013 290.884L180.161 277.192H203.535L210.696 254.866ZM90.1034 258.119L83.6647 278.192H62.5462L79.5873 290.5L73.1458 310.488L90.0991 298.175L107.147 310.488L100.611 290.501L117.654 278.192H96.6369L90.1034 258.119ZM210.703 258.119L204.265 278.192H183.239L200.187 290.501L193.746 310.488L210.699 298.175L227.747 310.488L221.211 290.501L238.254 278.192H217.237L210.703 258.119ZM150.396 278.973L157.663 301.192H181.046L162.088 314.884L169.353 337.204L150.401 323.411L131.554 337.204L138.713 314.884L119.861 301.192H143.236L150.396 278.973ZM150.403 282.212L143.964 302.192H122.939L139.887 314.501L133.446 334.581L150.399 322.173L167.447 334.581L160.912 314.501L177.954 302.192H156.937L150.403 282.212Z" fill="black"/>
</g>
<defs>
<clipPath id="clip0_3_2392">
<rect width="513" height="342" fill="white" transform="translate(0 0.892578)"/>
</clipPath>
</defs>
</svg>
