<svg width="513" height="343" viewBox="0 0 513 343" fill="none" xmlns="http://www.w3.org/2000/svg">
<g clip-path="url(#clip0_3_2303)">
<path d="M0 0.892578H513V342.893H0V0.892578Z" fill="white"/>
<path d="M141.7 155.593C141.7 155.593 141.9 222.693 216.4 220.893L220.9 234.793H229.8C229.8 234.793 222.4 193.693 289.9 193.293C289.9 193.293 289.9 165.693 317.5 165.693H359C359 165.693 293 113.893 417.9 47.6928L419.7 34.5928C419.7 34.5928 289.8 105.593 220.8 91.7928C220.8 91.7928 231.5 134.293 210 134.293C199.2 134.293 200.3 126.193 177.7 126.193C159 126.193 160.4 145.893 151.4 145.693C142.5 145.493 132.6 133.393 131.8 135.493C131.1 137.593 141.7 155.593 141.7 155.593Z" fill="#DB7D00"/>
<path d="M237.2 308.992C244.1 303.992 250.2 302.392 259.6 300.692C269 298.992 279 296.292 284.2 294.892C289.4 293.492 266.5 301.492 260.7 303.192C254.9 304.792 237.2 308.992 237.2 308.992ZM275.1 294.292C273.2 282.392 277.9 269.992 288.6 264.992C291.1 273.592 283.4 288.192 275.1 294.292ZM293.3 288.092C287.5 278.292 297.3 265.492 304.4 259.292C307.7 265.292 301.9 282.993 293.3 288.092ZM310.2 280.492C304 272.092 311.3 257.292 319 251.492C322.1 259.692 319.1 274.692 310.2 280.492ZM327.1 269.892C321.5 261.892 325.4 249.492 333.4 241.492C339.2 248.092 334.3 262.492 327.1 269.892ZM340.6 259.192C335.9 251.692 341.7 233.792 349.2 228.792C352.5 235.392 350 254.192 340.6 259.192ZM351.4 256.392C350 245.592 368.8 233.692 376.6 233.992C375.7 242.892 367.7 252.592 351.4 256.392ZM340.9 268.592C349.7 259.492 366.9 259.492 373 261.392C371.3 266.692 351.1 278.292 340.9 268.592Z" fill="#006651"/>
<path d="M328.7 277.692C341.1 274.392 349.2 271.592 356.6 279.392C351.4 285.992 331.2 284.092 328.7 277.692ZM311 285.692C322.9 279.292 337.3 288.692 339.5 294.292C326.2 299.792 310.8 287.092 311 285.692ZM294.7 294.892C305.5 290.792 317.9 296.292 322.9 302.392C317.1 305.092 301.9 308.092 294.7 294.892ZM279.8 299.592C292.2 298.192 304.2 307.592 306.8 312.992C290.9 314.492 284.8 309.792 279.8 299.592ZM275.8 308.992C268.9 303.992 262.8 302.392 253.4 300.692C244 298.992 234 296.292 228.8 294.892C223.5 293.492 246.5 301.492 252.3 303.192C258.1 304.792 275.8 308.992 275.8 308.992ZM237.9 294.292C239.8 282.392 235.1 269.992 224.4 264.992C221.9 273.592 229.6 288.192 237.9 294.292ZM219.7 288.092C225.5 278.292 215.7 265.492 208.6 259.292C205.3 265.292 211.1 282.993 219.7 288.092ZM202.8 280.492C209 272.092 201.7 257.292 194 251.492C190.9 259.692 193.9 274.692 202.8 280.492ZM185.9 269.892C191.5 261.892 187.6 249.492 179.6 241.492C173.8 248.092 178.7 262.492 185.9 269.892ZM172.4 259.192C177.1 251.692 171.3 233.792 163.8 228.792C160.5 235.392 163 254.192 172.4 259.192ZM161.6 256.392C163 245.592 144.2 233.692 136.4 233.992C137.3 242.892 145.3 252.592 161.6 256.392ZM172.1 268.592C163.3 259.492 146.1 259.492 140 261.392C141.7 266.692 161.9 278.292 172.1 268.592Z" fill="#006651"/>
<path d="M184.3 277.693C171.9 274.393 163.8 271.593 156.4 279.393C161.6 285.993 181.8 284.093 184.3 277.693ZM202 285.693C190.1 279.293 175.7 288.693 173.5 294.293C186.8 299.793 202.2 287.093 202 285.693ZM218.3 294.893C207.5 290.793 195.1 296.293 190.1 302.393C195.9 305.093 211.1 308.093 218.3 294.893ZM233.2 299.593C220.8 298.193 208.8 307.593 206.2 312.993C222.1 314.493 228.2 309.793 233.2 299.593Z" fill="#006651"/>
</g>
<defs>
<clipPath id="clip0_3_2303">
<rect width="513" height="342" fill="white" transform="translate(0 0.892578)"/>
</clipPath>
</defs>
</svg>
