<svg width="513" height="343" viewBox="0 0 513 343" fill="none" xmlns="http://www.w3.org/2000/svg">
<g clip-path="url(#clip0_3_2208)">
<path d="M0 0.994141H513V342.961H0V0.994141Z" fill="#496E2D"/>
<path d="M0 111.91V232.145H513V111.91H0Z" fill="black"/>
<path d="M0 111.91H513V151.989H0V111.91Z" fill="#FFDA44"/>
<path d="M0 192.067H513V232.145H0V192.067Z" fill="white"/>
<path d="M196.383 0.994141H316.617V342.961H196.383V0.994141Z" fill="black"/>
<path d="M196.383 0.994141H236.461V342.961H196.383V0.994141Z" fill="#FFDA44"/>
<path d="M275.237 0.994141H315.315V342.961H275.237V0.994141Z" fill="white"/>
<path d="M256.5 295.368C324.619 295.368 379.841 240.146 379.841 172.027C379.841 103.908 324.619 48.687 256.5 48.687C188.381 48.687 133.16 103.908 133.16 172.027C133.16 240.146 188.381 295.368 256.5 295.368Z" fill="#D80027"/>
<path d="M256.5 59.7085L261.109 73.9362H276.138L264.015 82.8536L268.624 97.0814L256.5 88.2642L244.376 97.0814L248.985 82.8536L236.862 73.9362H251.891L256.5 59.7085ZM190.471 81.1503L202.695 89.9675L214.819 81.1503L210.21 95.4782L222.333 104.295H207.304L202.695 118.523L197.986 104.295H182.957L195.08 95.4782L190.471 81.1503ZM149.692 137.26H164.721L169.33 123.032L174.039 137.26H189.069L176.845 146.077L181.554 160.405L169.33 151.588L157.207 160.405L161.816 146.077L149.692 137.26ZM149.692 206.695L161.816 197.878L157.207 183.55L169.33 192.367L181.554 183.55L176.845 197.878L189.069 206.695H174.039L169.33 221.023L164.721 206.695H149.692ZM190.471 262.905L195.08 248.577L182.957 239.759H197.986L202.695 225.432L207.304 239.759H222.333L210.21 248.577L214.819 262.905L202.695 253.987L190.471 262.905ZM256.5 284.346L251.891 270.018H236.862L248.985 261.201L244.376 246.873L256.5 255.691L268.624 246.873L264.015 261.201L276.138 270.018H261.109L256.5 284.346ZM322.529 262.905L310.305 253.987L298.181 262.905L302.79 248.577L290.667 239.759H305.696L310.305 225.432L315.014 239.759H330.043L317.92 248.577L322.529 262.905ZM363.308 206.695H348.279L343.67 221.023L338.961 206.695H323.932L336.155 197.878L331.446 183.55L343.67 192.367L355.794 183.55L351.185 197.878L363.308 206.695ZM363.308 137.26L351.185 146.077L355.794 160.405L343.67 151.588L331.446 160.405L336.155 146.077L323.932 137.26H338.961L343.67 123.032L348.279 137.26H363.308ZM322.529 81.1503L317.92 95.4782L330.043 104.295H315.014L310.305 118.523L305.696 104.295H290.667L302.79 95.4782L298.181 81.1503L310.305 89.9675L322.529 81.1503Z" fill="#496E2D"/>
<path d="M279.845 170.024C268.824 148.882 265.317 144.875 265.317 144.875C265.317 144.875 265.718 135.156 265.718 129.244C265.718 120.427 258.303 113.413 249.186 113.413C240.569 113.413 233.455 116.319 232.653 124.435C228.445 125.337 224.037 128.543 224.037 135.156C224.037 139.965 225.039 142.47 229.247 144.474C231.351 139.865 233.555 139.665 238.565 138.061C239.367 138.663 240.268 141.067 241.17 141.468L241.471 142.47C241.471 142.47 228.145 149.083 228.145 173.43C228.145 202.988 250.188 218.919 250.188 218.919L248.384 219.22L246.48 226.333H268.523V219.119L279.545 236.654C279.845 236.353 289.765 188.961 279.845 170.024Z" fill="#496E2D"/>
</g>
<defs>
<clipPath id="clip0_3_2208">
<rect width="513" height="341.967" fill="white" transform="translate(0 0.994141)"/>
</clipPath>
</defs>
</svg>
