<svg width="513" height="343" viewBox="0 0 513 343" fill="none" xmlns="http://www.w3.org/2000/svg">
<g clip-path="url(#clip0_3_2192)">
<path d="M0 0.726074H513V342.693H0V0.726074Z" fill="#2E52B2"/>
<path d="M256.5 0.726074V23.3702L210.31 54.1302H256.5V118.255H210.31L256.5 149.015V171.759H233.856L160.312 122.664V171.759H96.1875V122.664L22.6441 171.759H0V149.015L46.19 118.255H0V54.1302H46.19L0 23.3702V0.726074H22.6441L96.1875 49.7216V0.726074H160.312V49.7216L233.856 0.726074H256.5Z" fill="white"/>
<path d="M144.281 0.726074H112.219V70.1614H0V102.224H112.219V171.759H144.281V102.224H256.5V70.1614H144.281V0.726074Z" fill="#D80027"/>
<path d="M0 0.726074V15.8556L57.5121 54.1302H80.1562L0 0.726074ZM256.5 0.726074V15.8556L198.988 54.1302H176.344L256.5 0.726074Z" fill="#D80027"/>
<path d="M0 0.726074V15.8556L57.5121 54.1302H80.1562L0 0.726074ZM256.5 0.726074V15.8556L198.988 54.1302H176.344L256.5 0.726074ZM0 171.759V156.63L57.5121 118.255H80.1562L0 171.759ZM256.5 171.759V156.63L198.988 118.255H176.344L256.5 171.759Z" fill="#D80027"/>
<path d="M307.7 128.074V220.254C307.7 281.974 388.357 300.911 388.357 300.911C388.357 300.911 468.914 281.874 468.914 220.154V127.974L388.257 104.929L307.7 128.074Z" fill="#F3F3F3"/>
<path d="M468.914 133.786V99.2183H307.7V133.786H376.834V202.92H307.7V225.965H376.834V297.304C383.748 299.809 388.357 300.811 388.357 300.811C388.357 300.811 392.966 299.709 399.879 297.304V225.965H469.014V202.92H399.879V133.786H468.914Z" fill="#D80027"/>
</g>
<defs>
<clipPath id="clip0_3_2192">
<rect width="513" height="341.967" fill="white" transform="translate(0 0.726074)"/>
</clipPath>
</defs>
</svg>
