<svg width="513" height="343" viewBox="0 0 513 343" fill="none" xmlns="http://www.w3.org/2000/svg">
<g clip-path="url(#clip0_3_2276)">
<path d="M0 0.89209H513V342.892H0V0.89209Z" fill="white"/>
<path d="M0 230.892H513V342.892H0V230.892Z" fill="#D80027"/>
<path d="M363.1 132.692V99.992H374V78.192H352.1V89.092H330.3V78.192H308.5V99.992H319.4V132.692H297.6V56.392H308.5V34.592H286.7V45.492H275.8V34.592H254V45.492H243.1V34.592H221.3V56.392H232.2V132.692H210.4V99.992H221.3V78.192H199.5V89.092H177.7V78.192H155.9V99.992H166.8V132.692H145V219.892H384.9V132.692H363.1Z" fill="#D80027"/>
<path fill-rule="evenodd" clip-rule="evenodd" d="M220.8 34.092H243.6V44.992H253.5V34.092H276.3V44.992H286.2V34.092H309V56.892H298.1V132.192H318.9V100.492H308V77.692H330.8V88.592H351.6V77.692H374.5V100.492H363.6V132.192H385.4V220.392H144.5V132.192H166.3V100.492H155.4V77.692H178.2V88.592H199V77.692H221.8V100.492H210.9V132.192H231.7V56.892H220.8V34.092ZM221.8 35.092V55.892H232.7V133.192H209.9V99.492H220.8V78.692H200V89.592H177.2V78.692H156.4V99.492H167.3V133.192H145.5V219.392H384.4V133.192H362.6V99.492H373.5V78.692H352.6V89.592H329.8V78.692H309V99.492H319.9V133.192H297.1V55.892H308V35.092H287.2V45.992H275.3V35.092H254.5V45.992H242.6V35.092H221.8Z" fill="black"/>
<path d="M264.9 236.392L240.7 254.592L259.8 268.892V300.192H236.6V309.192H259.6V317.092H236.6V326.392H270V268.892L289.1 254.592L264.9 236.392ZM264.9 261.692L254.8 254.592L264.9 247.492L275 254.592L264.9 261.692Z" fill="#FFDA44"/>
<path fill-rule="evenodd" clip-rule="evenodd" d="M265.201 235.992L289.933 254.593L270.5 269.142V326.892H236.1V316.592H259.1V309.692H236.1V299.692H259.3V269.142L239.867 254.593L264.6 235.992L264.9 236.392L265.201 235.992ZM264.9 237.018L241.533 254.591L260.3 268.642V300.692H237.1V308.692H260.1V317.592H237.1V325.892H269.5V268.642L288.267 254.591L264.9 237.018ZM264.9 246.881L275.87 254.592L264.9 262.303L253.931 254.592L264.9 246.881ZM255.67 254.592L264.9 261.081L274.131 254.592L264.9 248.103L255.67 254.592Z" fill="black"/>
<path d="M239.6 210.592V182.692C239.6 182.692 239.7 160.392 264.6 160.392C289.4 160.392 290.3 182.392 290.3 182.392V210.592H239.6ZM170.5 210.592V186.292C170.5 186.292 170.6 167.592 190.1 167.592C209.6 167.592 210.3 185.992 210.3 185.992V210.492H170.5V210.592Z" fill="black"/>
<path d="M169.1 210.592V186.292C169.1 186.292 169.2 167.592 188.7 167.592C208.2 167.592 208.9 185.992 208.9 185.992V210.492H169.1V210.592ZM320.9 210.592V186.292C320.9 186.292 321 167.592 340.5 167.592C360 167.592 360.7 185.992 360.7 185.992V210.492H320.9V210.592ZM329.3 132.892V117.192C329.3 117.192 329.4 105.092 340.6 105.092C351.9 105.092 352.3 116.992 352.3 116.992V132.892H329.3ZM250.5 132.892V109.192C250.5 109.192 250.6 90.8921 264.8 90.8921C279 90.8921 279.5 108.892 279.5 108.892V132.892H250.5ZM177.5 132.892V117.192C177.5 117.192 177.6 105.092 188.8 105.092C200 105.092 200.5 116.992 200.5 116.992V132.892H177.5Z" fill="black"/>
</g>
<defs>
<clipPath id="clip0_3_2276">
<rect width="513" height="342" fill="white" transform="translate(0 0.89209)"/>
</clipPath>
</defs>
</svg>
