<svg width="513" height="343" viewBox="0 0 513 343" fill="none" xmlns="http://www.w3.org/2000/svg">
<g clip-path="url(#clip0_3_2302)">
<path d="M0 0.991699H512V342.992H0V0.991699Z" fill="white"/>
<path d="M0 0.991699H513V114.992H0V0.991699Z" fill="#6DA544"/>
<path d="M0 228.891H513V342.891H0V228.891ZM278.8 135.792C278.9 137.792 287.5 161.991 283.2 175.191C276.6 195.492 267.4 196.992 263.4 199.691V134.992L256.5 130.792L249.6 134.992V199.691C245.6 196.992 237.2 197.291 229.8 175.191C225.5 162.491 235.5 137.892 235.6 135.992C235.6 135.992 226.1 144.092 219.8 159.992C213.9 174.792 221.7 209.592 249.3 214.792C251.6 215.192 254 220.391 256.5 220.391C258.6 220.391 260.6 215.191 262.5 214.891C290.9 210.291 297.5 173.192 292.4 159.292C287 144.692 278.8 135.792 278.8 135.792Z" fill="#D80027"/>
<g opacity="0.5">
<path opacity="0.5" d="M44.6 99.8916H66.9V124.292H44.6V99.8916ZM0 99.8916H22.3V124.292H0V99.8916ZM89.2 99.8916H111.5V124.292H89.2V99.8916ZM133.8 99.8916H156.1V124.292H133.8V99.8916ZM178.4 99.8916H200.7V124.292H178.4V99.8916ZM223 99.8916H245.3V124.292H223V99.8916ZM267.7 99.8916H290V124.292H267.7V99.8916ZM312.3 99.8916H334.6V124.292H312.3V99.8916ZM356.9 99.8916H379.2V124.292H356.9V99.8916ZM401.5 99.8916H423.8V124.292H401.5V99.8916ZM446.1 99.8916H468.4V124.292H446.1V99.8916ZM490.7 99.8916H513V124.292H490.7V99.8916ZM44.6 217.892H66.9V243.392H44.6V217.892ZM0 217.892H22.3V243.392H0V217.892ZM89.2 217.892H111.5V243.392H89.2V217.892ZM133.8 217.892H156.1V243.392H133.8V217.892ZM178.4 217.892H200.7V243.392H178.4V217.892ZM223 217.892H245.3V243.392H223V217.892ZM267.7 217.892H290V243.392H267.7V217.892ZM312.3 217.892H334.6V243.392H312.3V217.892ZM356.9 217.892H379.2V243.392H356.9V217.892ZM401.5 217.892H423.8V243.392H401.5V217.892ZM446.1 217.892H468.4V243.392H446.1V217.892ZM490.7 217.892H513V243.392H490.7V217.892Z" fill="white"/>
</g>
</g>
<defs>
<clipPath id="clip0_3_2302">
<rect width="513" height="342" fill="white" transform="translate(0 0.991699)"/>
</clipPath>
</defs>
</svg>
