<svg width="513" height="344" viewBox="0 0 513 344" fill="none" xmlns="http://www.w3.org/2000/svg">
<g clip-path="url(#clip0_3_2385)">
<path d="M0 0.992188H514.002V343.66H0V0.992188Z" fill="#D80027"/>
<path d="M256.5 343.059C350.959 343.059 427.534 266.485 427.534 172.026C427.534 77.5664 350.959 0.992188 256.5 0.992188C162.041 0.992188 85.4668 77.5664 85.4668 172.026C85.4668 266.485 162.041 343.059 256.5 343.059Z" fill="#D80027"/>
<path d="M383.147 172.026L331.446 196.373L359 246.471L302.79 235.75L295.676 292.46L256.5 250.679L217.324 292.46L210.21 235.75L154 246.471L181.554 196.373L129.853 172.026L181.554 147.678L154 97.4804L210.21 108.301L217.324 51.4907L256.5 93.2722L295.676 51.4907L302.79 108.301L359 97.4804L331.446 147.678L383.147 172.026Z" fill="#FFDA44"/>
<path d="M257.903 243.765C297.524 243.765 329.643 211.646 329.643 172.025C329.643 132.405 297.524 100.286 257.903 100.286C218.282 100.286 186.163 132.405 186.163 172.025C186.163 211.646 218.282 243.765 257.903 243.765Z" fill="#D80027"/>
<path d="M214.618 172.026C212.514 172.026 210.51 172.126 208.406 172.326C208.506 184.35 212.815 195.271 220.029 203.888C223.836 193.568 229.547 184.25 236.762 176.134C229.848 173.429 222.434 172.026 214.618 172.026ZM241.27 218.617C246.48 220.52 252.091 221.522 257.903 221.522C263.714 221.522 269.325 220.52 274.535 218.617C271.73 207.495 265.818 197.576 257.903 189.76C249.987 197.576 244.076 207.495 241.27 218.617ZM300.786 147.278C292.27 132.449 276.238 122.529 257.903 122.529C239.567 122.529 223.636 132.449 215.019 147.278C230.65 147.378 245.278 151.586 257.903 158.9C270.527 151.586 285.156 147.278 300.786 147.278ZM279.044 176.134C286.258 184.149 291.969 193.568 295.777 203.888C302.991 195.371 307.299 184.35 307.399 172.326C305.395 172.126 303.291 172.026 301.187 172.026C293.472 172.026 285.957 173.429 279.044 176.134Z" fill="#FFDA44"/>
</g>
<defs>
<clipPath id="clip0_3_2385">
<rect width="513" height="342.668" fill="white" transform="translate(0 0.992188)"/>
</clipPath>
</defs>
</svg>
