<svg width="513" height="343" viewBox="0 0 513 343" fill="none" xmlns="http://www.w3.org/2000/svg">
<g clip-path="url(#clip0_3_2293)">
<path d="M0 0.992676H513V342.993H0V0.992676Z" fill="#D80027"/>
<path d="M512 0.992676H0V342.993" fill="#6DA544"/>
<path d="M307.7 0.992676L0 195.493V342.993H206.9L513 149.493V0.992676H307.7Z" fill="#FFDA44"/>
<path d="M513 0.992676H385.2L0 250.393V341.993L126.2 342.993L513 92.5927V0.992676Z" fill="black"/>
<path d="M141.1 187.993L172.3 211.993L204.6 189.793L191.5 226.793L222.6 250.693L183.4 249.593L170.2 286.593L159.1 248.993L119.9 247.893L152.2 225.693L141.1 187.993ZM310.6 71.7927L341.8 95.6927L374.1 73.4927L361 110.493L392.1 134.393L352.9 133.293L339.7 170.293L328.6 132.693L289.4 131.593L321.8 109.393L310.6 71.7927Z" fill="white"/>
</g>
<defs>
<clipPath id="clip0_3_2293">
<rect width="513" height="342" fill="white" transform="translate(0 0.992676)"/>
</clipPath>
</defs>
</svg>
