<svg width="513" height="343" viewBox="0 0 513 343" fill="none" xmlns="http://www.w3.org/2000/svg">
<g clip-path="url(#clip0_3_2252)">
<path d="M0 0.991455H513V342.995H0V0.991455Z" fill="#91DC5A"/>
<path d="M0 0.991455H513V342.995H0V0.991455Z" fill="white"/>
<path d="M0 0.991455H513V58.2911H0V0.991455ZM0 285.695H513V342.984H0V285.695Z" fill="#0052B4"/>
<path d="M0 81.0314H513V262.968H0V81.0314Z" fill="#D80027"/>
<path d="M190.702 237.784C227.04 237.784 256.498 208.326 256.498 171.988C256.498 135.65 227.04 106.192 190.702 106.192C154.363 106.192 124.905 135.65 124.905 171.988C124.905 208.326 154.363 237.784 190.702 237.784Z" fill="white"/>
<path d="M190.704 106.198L205.467 151.632H253.317L214.592 179.715L229.47 225.285L190.704 197.07L151.998 225.232L166.816 179.715L128.125 151.632H175.94L190.704 106.198Z" fill="#D80027"/>
</g>
<defs>
<clipPath id="clip0_3_2252">
<rect width="513" height="342" fill="white" transform="translate(0 0.993408)"/>
</clipPath>
</defs>
</svg>
