<svg width="513" height="343" viewBox="0 0 513 343" fill="none" xmlns="http://www.w3.org/2000/svg">
<g clip-path="url(#clip0_3_2230)">
<path d="M0 0.994141H513V342.994H0V0.994141Z" fill="#D80027"/>
<path d="M0 0.994141H513V171.994H0V0.994141Z" fill="#0052B4"/>
<path d="M149.3 99.0942C149.3 85.0942 138 73.7942 124 73.7942C117.5 73.7942 111.6 76.1942 107.1 80.1942V65.3942H115.5V48.4942H107.1V40.0942H90.3001V48.4942H81.9001V65.3942H90.3001V80.2942C85.8001 76.2942 79.9001 73.8942 73.4001 73.8942C59.4001 73.8942 48.1001 85.1942 48.1001 99.1942C48.1001 106.694 51.4001 113.394 56.5001 117.994V132.894H140.8V117.994C146.1 113.294 149.3 106.494 149.3 99.0942Z" fill="#FFDA44"/>
</g>
<defs>
<clipPath id="clip0_3_2230">
<rect width="513" height="342" fill="white" transform="translate(0 0.994141)"/>
</clipPath>
</defs>
</svg>
