<svg width="513" height="343" viewBox="0 0 513 343" fill="none" xmlns="http://www.w3.org/2000/svg">
<g clip-path="url(#clip0_3_2306)">
<path d="M0 0.995605H513V342.988H0V0.995605Z" fill="black"/>
<path d="M0 0.995605H513V114.993H0V0.995605Z" fill="#D80027"/>
<path d="M0 228.991H513V342.988H0V228.991Z" fill="#496E2D"/>
<path d="M281.974 151.979L290.953 164.353L305.495 159.638L296.502 172.001L305.481 184.374L290.943 179.641L281.95 192.005L281.96 176.717L267.421 171.983L281.964 167.268L281.974 151.979Z" fill="white"/>
<path d="M257.467 202.92C240.385 202.92 226.538 189.072 226.538 171.992C226.538 154.912 240.386 141.064 257.467 141.064C262.604 141.056 267.662 142.334 272.179 144.781C265.315 138.07 255.93 133.927 245.572 133.927C224.549 133.927 207.505 150.97 207.505 171.993C207.505 193.016 224.549 210.059 245.572 210.059C255.93 210.059 265.316 205.916 272.179 199.205C267.662 201.651 262.604 202.928 257.467 202.92Z" fill="white"/>
</g>
<defs>
<clipPath id="clip0_3_2306">
<rect width="513" height="342" fill="white" transform="translate(0 0.991699)"/>
</clipPath>
</defs>
</svg>
