<svg width="513" height="343" viewBox="0 0 513 343" fill="none" xmlns="http://www.w3.org/2000/svg">
<g clip-path="url(#clip0_3_2205)">
<path d="M0 0.99292H513V342.993H0V0.99292Z" fill="#0052B4"/>
<path d="M512 149.393V193.893H278.3V342.293H233.7V193.893H0V149.393H233.7V0.99292H278.3V149.393H512Z" fill="white"/>
<path d="M101 37.0929C105.2 36.8929 109.3 36.9929 113.5 37.2929C119 37.6929 122.9 38.8929 122.6 37.7929C122.1 35.9929 122.5 35.5929 121.8 35.9929C120.5 36.9929 122.5 35.7929 114.4 40.3929C102.6 47.0929 97.4998 52.1929 100.1 61.3929C102.4 69.4929 108.3 71.6929 122.4 73.8929L124.3 74.1929C129.9 75.0929 132.4 75.5929 134.1 76.3929C134.5 76.5929 133.8 75.3929 134 74.6929C133.8 75.2929 130.1 76.7929 120.7 78.5929L116 79.4929C97.8998 83.1929 88.8998 87.9929 87.4998 100.493C85.9998 114.193 100.2 123.793 118.1 126.093C136.3 128.493 152.2 122.493 153.8 107.693C154.8 98.2929 148.3 92.6929 137.9 90.5929C130.9 89.1929 121.6 89.1929 110.5 90.2929C98.0998 91.5929 85.7998 93.6929 73.5998 96.5929C69.9998 97.2929 67.6998 100.793 68.3998 104.393C69.0998 107.993 72.5998 110.293 76.1998 109.593C76.3998 109.593 76.4998 109.493 76.6998 109.493C88.2998 106.793 99.9998 104.793 111.8 103.593C121.7 102.593 129.8 102.593 135.2 103.693C139.6 104.593 140.5 105.393 140.4 106.293C139.9 111.393 131.5 114.493 119.7 112.993C108.1 111.493 100.2 106.193 100.6 101.993C101.1 97.6929 105.9 95.1929 118.5 92.5929L123.1 91.6929C138.6 88.6929 144.2 86.3929 146.6 78.4929C148.5 71.9929 145.3 66.8929 139.4 64.2929C136.2 62.8929 133.1 62.1929 126.2 61.1929L124.4 60.8929C116.4 59.5929 113 58.2929 112.9 57.8929C112.8 57.4929 114.7 55.5929 121 51.9929L125.4 49.4929C126.9 48.6929 128.3 47.6929 129.7 46.7929C134.3 43.3929 136.9 39.6929 135.5 34.4929C133.6 27.1929 126.5 24.9929 114.6 24.0929C109.9 23.7929 105.3 23.6929 100.6 23.7929L98.5998 23.8929C94.8998 24.0929 92.0998 27.2929 92.2998 30.8929C92.4998 34.5929 95.6998 37.3929 99.2998 37.1929L101 37.0929ZM385 37.0929C389.2 36.8929 393.3 36.9929 397.5 37.2929C403 37.6929 406.9 38.8929 406.6 37.7929C406.1 35.9929 406.5 35.5929 405.8 35.9929C404.5 36.9929 406.5 35.7929 398.4 40.3929C386.6 47.0929 381.5 52.1929 384.1 61.3929C386.4 69.4929 392.3 71.6929 406.4 73.8929L408.3 74.1929C413.9 75.0929 416.4 75.5929 418.1 76.3929C418.5 76.5929 417.8 75.3929 418 74.6929C417.8 75.2929 414.1 76.7929 404.7 78.5929L400 79.4929C381.9 83.1929 372.9 87.9929 371.5 100.493C370 114.193 384.2 123.793 402.1 126.093C420.3 128.493 436.2 122.493 437.8 107.693C438.8 98.2929 432.3 92.6929 421.9 90.5929C414.9 89.1929 405.6 89.1929 394.5 90.2929C382.1 91.5929 369.8 93.6929 357.6 96.5929C354 97.2929 351.7 100.793 352.4 104.393C353.1 107.993 356.6 110.293 360.2 109.593C360.4 109.593 360.5 109.493 360.7 109.493C372.3 106.793 384 104.793 395.8 103.593C405.7 102.593 413.8 102.593 419.2 103.693C423.6 104.593 424.5 105.393 424.4 106.293C423.9 111.393 415.5 114.493 403.7 112.993C392.1 111.493 384.2 106.193 384.6 101.993C385.1 97.6929 389.9 95.1929 402.5 92.5929L407.1 91.6929C422.6 88.6929 428.2 86.3929 430.6 78.4929C432.5 71.9929 429.3 66.8929 423.4 64.2929C420.2 62.8929 417.1 62.1929 410.2 61.1929L408.4 60.8929C400.4 59.5929 397 58.2929 396.9 57.8929C396.8 57.4929 398.7 55.5929 405 51.9929L409.4 49.4929C410.9 48.6929 412.3 47.6929 413.7 46.7929C418.3 43.3929 420.9 39.6929 419.5 34.4929C417.6 27.1929 410.5 24.9929 398.6 24.0929C393.9 23.7929 389.3 23.6929 384.6 23.7929L382.6 23.8929C378.9 24.0929 376.1 27.2929 376.3 30.8929C376.5 34.5929 379.7 37.3929 383.3 37.1929L385 37.0929ZM379.6 236.093C383.8 235.893 387.9 235.993 392.1 236.293C397.6 236.693 401.5 237.893 401.2 236.793C400.7 234.993 401.1 234.593 400.4 234.993C399.1 235.993 401.1 234.793 393 239.393C381.2 246.093 376.1 251.193 378.7 260.393C381 268.493 386.9 270.693 401 272.893L402.9 273.193C408.5 274.093 411 274.593 412.7 275.393C413.1 275.593 412.4 274.393 412.6 273.693C412.4 274.293 408.7 275.793 399.3 277.593L394.6 278.493C376.5 282.193 367.5 286.993 366.1 299.493C364.6 313.193 378.8 322.793 396.7 325.093C414.9 327.493 430.8 321.493 432.4 306.693C433.4 297.293 426.9 291.693 416.5 289.593C409.5 288.193 400.2 288.193 389.1 289.293C376.7 290.593 364.4 292.693 352.2 295.593C348.6 296.293 346.3 299.793 347 303.393C347.7 306.993 351.2 309.293 354.8 308.593C355 308.593 355.1 308.493 355.3 308.493C366.9 305.793 378.6 303.793 390.4 302.593C400.3 301.593 408.4 301.593 413.8 302.693C418.2 303.593 419.1 304.393 419 305.293C418.5 310.393 410.1 313.493 398.3 311.993C386.7 310.493 378.8 305.193 379.2 300.993C379.7 296.693 384.5 294.193 397.1 291.593L401.7 290.693C417.2 287.693 422.8 285.393 425.2 277.493C427.1 270.993 423.9 265.893 418 263.293C414.8 261.893 411.7 261.193 404.8 260.193L403 259.893C395 258.593 391.6 257.293 391.5 256.893C391.4 256.493 393.3 254.593 399.6 250.993L404 248.493C405.5 247.693 406.9 246.693 408.3 245.793C412.9 242.393 415.5 238.693 414.1 233.493C412.2 226.193 405.1 223.993 393.2 223.093C388.5 222.793 383.9 222.693 379.2 222.793L377.2 222.893C373.5 223.093 370.7 226.293 370.9 229.893C371.1 233.493 374.3 236.393 377.9 236.193L379.6 236.093ZM101 236.093C105.2 235.893 109.3 235.993 113.5 236.293C119 236.693 122.9 237.893 122.6 236.793C122.1 234.993 122.5 234.593 121.8 234.993C120.5 235.993 122.5 234.793 114.4 239.393C102.6 246.093 97.4998 251.193 100.1 260.393C102.4 268.493 108.3 270.693 122.4 272.893L124.3 273.193C129.9 274.093 132.4 274.593 134.1 275.393C134.5 275.593 133.8 274.393 134 273.693C133.8 274.293 130.1 275.793 120.7 277.593L116 278.493C97.8998 282.193 88.8998 286.993 87.4998 299.493C85.9998 313.193 100.2 322.793 118.1 325.093C136.3 327.493 152.2 321.493 153.8 306.693C154.8 297.293 148.3 291.693 137.9 289.593C130.9 288.193 121.6 288.193 110.5 289.293C98.0998 290.593 85.7998 292.693 73.5998 295.593C69.9998 296.293 67.6998 299.793 68.3998 303.393C69.0998 306.993 72.5998 309.293 76.1998 308.593C76.3998 308.593 76.4998 308.493 76.6998 308.493C88.2998 305.793 99.9998 303.793 111.8 302.593C121.7 301.593 129.8 301.593 135.2 302.693C139.6 303.593 140.5 304.393 140.4 305.293C139.9 310.393 131.5 313.493 119.7 311.993C108.1 310.493 100.2 305.193 100.6 300.993C101.1 296.693 105.9 294.193 118.5 291.593L123.1 290.693C138.6 287.693 144.2 285.393 146.6 277.493C148.5 270.993 145.3 265.893 139.4 263.293C136.2 261.893 133.1 261.193 126.2 260.193L124.4 259.893C116.4 258.593 113 257.293 112.9 256.893C112.8 256.493 114.7 254.593 121 250.993L125.4 248.493C126.9 247.693 128.3 246.693 129.7 245.793C134.3 242.393 136.9 238.693 135.5 233.493C133.6 226.193 126.5 223.993 114.6 223.093C109.9 222.793 105.3 222.693 100.6 222.793L98.5998 222.893C94.8998 223.093 92.0998 226.293 92.2998 229.893C92.4998 233.593 95.6998 236.393 99.2998 236.193L101 236.093Z" fill="white"/>
</g>
<defs>
<clipPath id="clip0_3_2205">
<rect width="513" height="342" fill="white" transform="translate(0 0.99292)"/>
</clipPath>
</defs>
</svg>
