<svg width="513" height="343" viewBox="0 0 513 343" fill="none" xmlns="http://www.w3.org/2000/svg">
<g clip-path="url(#clip0_3_2181)">
<path d="M0 0.991211H513V342.995H0V0.991211Z" fill="black"/>
<path d="M0 0.988281H513V342.987" fill="#A2001D"/>
<path d="M205.031 242.617L207.798 251.138H216.757L209.51 256.403L212.278 264.922L205.031 259.658L197.784 264.922L200.551 256.403L193.304 251.138H202.261L205.031 242.617ZM182.152 160.836L186.766 175.036H201.696L189.617 183.81L194.231 198.009L182.152 189.233L170.074 198.009L174.689 183.81L162.609 175.036H177.539L182.152 160.836ZM182.152 264.922L186.765 279.123H201.696L189.616 287.897L194.231 302.097L182.152 293.321L170.074 302.097L174.687 287.897L162.609 279.123H177.537L182.152 264.922ZM225.803 198.009L230.418 212.209H245.348L233.269 220.984L237.883 235.184L225.803 226.408L213.726 235.184L218.341 220.984L206.261 212.209H221.191L225.803 198.009ZM138.5 198.009L143.115 212.209H158.043L145.966 220.984L150.578 235.184L138.5 226.408L126.422 235.184L131.036 220.984L118.957 212.209H133.886L138.5 198.009Z" fill="white"/>
<path d="M377.261 120.053C369.619 112.411 359.689 107.897 349.017 107.12L380.96 82.2768C368.237 69.554 351.188 63.8098 334.55 65.0252C332.497 57.6316 328.563 50.8962 323.132 45.4761L310.514 70.7113C309.668 69.1666 308.606 67.7506 307.36 66.5061C300.101 59.2469 288.332 59.2479 281.075 66.5061C273.818 73.7642 273.816 85.5332 281.075 92.7913C282.32 94.0367 283.736 95.0988 285.28 95.9455L260.045 108.563C265.467 113.997 272.205 117.932 279.602 119.984C278.383 136.623 284.122 153.669 296.845 166.392L324.753 130.511C326.834 128.449 329.646 127.295 332.575 127.303C335.554 127.303 338.355 128.463 340.461 130.569C341.5 131.602 342.323 132.831 342.884 134.184C343.445 135.538 343.731 136.989 343.727 138.454C343.727 141.434 342.567 144.234 340.461 146.34L350.975 156.854C355.89 151.94 358.597 145.404 358.597 138.454C358.597 132.768 356.783 127.362 353.434 122.89C358.471 124.23 363.065 126.878 366.748 130.567C378.344 142.162 378.344 161.029 366.748 172.624L377.262 183.138C385.688 174.713 390.327 163.51 390.327 151.596C390.326 139.681 385.686 128.479 377.261 120.053Z" fill="#FFDA44"/>
</g>
<defs>
<clipPath id="clip0_3_2181">
<rect width="513" height="342" fill="white" transform="translate(0 0.991211)"/>
</clipPath>
</defs>
</svg>
