<svg width="513" height="343" viewBox="0 0 513 343" fill="none" xmlns="http://www.w3.org/2000/svg">
<g clip-path="url(#clip0_3_2352)">
<path d="M0 0.987305H513V342.991H0V0.987305Z" fill="#0052B4"/>
<path d="M0 0.987305H513V114.985H0V0.987305Z" fill="#D80027"/>
<path d="M0 228.983H513V342.98H0V228.983Z" fill="white"/>
<path d="M129.721 97.6377V182.94C129.721 231.464 193.111 246.331 193.111 246.331C193.111 246.331 256.5 231.462 256.5 182.94V97.6377H129.721Z" fill="#D80027"/>
<path d="M155.938 112.508H230.284V82.7689L215.414 90.2034L193.109 67.8999L170.807 90.2034L155.938 82.7689V112.508ZM241.631 194.816L193.306 146.491L144.98 194.816L160.752 210.587L193.306 178.034L225.859 210.587L241.631 194.816Z" fill="#FFDA44"/>
<path d="M241.631 149.68H219.083C220.397 147.423 221.088 144.859 221.088 142.247C221.088 134.035 214.43 127.378 206.219 127.378C200.545 127.378 195.617 130.557 193.11 135.23C190.603 130.558 185.675 127.378 180.002 127.378C171.791 127.378 165.133 134.035 165.133 142.247C165.133 144.959 165.87 147.493 167.138 149.68H144.98C144.98 157.892 152.133 164.549 160.344 164.549H159.849C159.849 172.761 166.506 179.418 174.718 179.418C174.718 186.689 179.94 192.73 186.836 194.022L175.119 220.475C180.894 222.824 187.07 224.03 193.304 224.026C199.538 224.03 205.714 222.824 211.488 220.475L199.771 194.022C206.668 192.73 211.889 186.689 211.889 179.418C220.101 179.418 226.758 172.761 226.758 164.549H226.263C234.478 164.549 241.631 157.892 241.631 149.68Z" fill="white"/>
</g>
<defs>
<clipPath id="clip0_3_2352">
<rect width="513" height="342" fill="white" transform="translate(0 0.989258)"/>
</clipPath>
</defs>
</svg>
