<svg width="513" height="343" viewBox="0 0 513 343" fill="none" xmlns="http://www.w3.org/2000/svg">
<g clip-path="url(#clip0_3_2169)">
<path d="M0 0.963013H513V342.956H0V0.963013Z" fill="white"/>
<path d="M0 0.963013H513V171.959H0V0.963013Z" fill="#D80027"/>
<path d="M83.6414 86.4586C83.6414 61.5451 101.152 40.7325 124.533 35.6255C120.87 34.8224 117.131 34.4166 113.381 34.4152C84.6373 34.4152 61.3379 57.7146 61.3379 86.4576C61.3379 115.201 84.6383 138.501 113.381 138.501C117.211 138.501 120.939 138.075 124.533 137.291C101.152 132.186 83.6414 111.373 83.6414 86.4586ZM150.555 38.1334L154.246 49.4926H166.19L156.526 56.5132L160.218 67.8724L150.555 60.8527L140.891 67.8724L144.583 56.5132L134.919 49.4926H146.864L150.555 38.1334Z" fill="white"/>
<path d="M121.582 60.4379L125.272 71.797H137.216L127.552 78.8177L131.244 90.1768L121.582 83.1572L111.918 90.1768L115.61 78.8177L105.946 71.797H117.891L121.582 60.4379ZM179.529 60.4379L183.22 71.797H195.164L185.5 78.8177L189.192 90.1768L179.529 83.1572L169.866 90.1768L173.558 78.8177L163.894 71.797H175.839L179.529 60.4379ZM168.376 93.8941L172.067 105.253H184.011L174.349 112.274L178.04 123.633L168.376 116.613L158.714 123.633L162.405 112.274L152.743 105.253H164.686L168.376 93.8941ZM132.734 93.8941L136.424 105.253H148.368L138.705 112.274L142.396 123.633L132.734 116.613L123.071 123.633L126.762 112.274L117.099 105.253H129.042L132.734 93.8941Z" fill="white"/>
</g>
<defs>
<clipPath id="clip0_3_2169">
<rect width="513" height="342" fill="white" transform="translate(0 0.958984)"/>
</clipPath>
</defs>
</svg>
