<svg width="513" height="343" viewBox="0 0 513 343" fill="none" xmlns="http://www.w3.org/2000/svg">
<g clip-path="url(#clip0_3_2167)">
<path d="M0 0.963379H513V342.956H0V0.963379Z" fill="#338AF3"/>
<path d="M513 0.95752V167.973L0 172.132V0.95752H513Z" fill="white"/>
<path d="M324.377 118.953L256.5 186.829L188.624 118.953C179.542 132.414 174.699 148.286 174.718 164.524V186.829C174.718 222.643 197.86 253.151 229.974 264.193C225.688 272.594 226.411 283.078 232.691 290.916L256.996 271.439L281.302 290.916C287.656 282.985 288.326 272.346 283.871 263.895C315.546 252.612 338.285 222.329 338.285 186.829V164.524C338.302 148.286 333.458 132.414 324.377 118.953Z" fill="#6DA544"/>
<path d="M256.5 246.308C223.704 246.308 197.022 219.626 197.022 186.83V164.525C197.022 131.728 223.704 105.046 256.5 105.046C289.296 105.046 315.978 131.728 315.978 164.524V186.829C315.978 219.626 289.296 246.308 256.5 246.308Z" fill="#FFDA44"/>
<path d="M293.673 186.829V164.525C293.673 144.027 276.998 127.351 256.5 127.351C236.002 127.351 219.326 144.027 219.326 164.525V186.829L256.5 194.264L293.673 186.829Z" fill="#338AF3"/>
<path d="M219.326 186.829C219.326 207.327 236.002 224.003 256.5 224.003C276.998 224.003 293.673 207.327 293.673 186.829H219.326Z" fill="#6DA544"/>
<path d="M301.109 105.046C301.109 92.7274 291.123 82.7419 278.804 82.7419C273.316 82.7347 268.019 84.7591 263.935 88.425V75.3064H271.371V60.4375H263.935V53.002H249.066V60.4375H241.631V75.3064H249.066V88.425C244.981 84.7592 239.685 82.7348 234.196 82.7419C221.877 82.7419 211.892 92.7274 211.892 105.046C211.892 111.65 214.764 117.583 219.327 121.668V134.786H293.675V121.668C298.236 117.583 301.109 111.651 301.109 105.046Z" fill="#FFDA44"/>
</g>
<defs>
<clipPath id="clip0_3_2167">
<rect width="513" height="342" fill="white" transform="translate(0 0.956543)"/>
</clipPath>
</defs>
</svg>
