<svg width="512" height="343" viewBox="0 0 512 343" fill="none" xmlns="http://www.w3.org/2000/svg">
<g clip-path="url(#clip0_3_2158)">
<path d="M0 0.958496H512V342.296H0V0.958496Z" fill="#0052B4"/>
<path d="M332.058 107.622V185.843C332.058 223.946 384 235.622 384 235.622C384 235.622 435.942 223.947 435.942 185.843V107.622H332.058Z" fill="#FFDA44"/>
<path d="M376.579 136.066C376.579 143.921 369.935 164.51 361.739 164.51C353.543 164.51 346.899 143.922 346.899 136.066C346.899 128.21 361.739 121.844 361.739 121.844C361.739 121.844 376.579 128.211 376.579 136.066Z" fill="#FF9811"/>
<path d="M415.961 151.555C418.355 145.955 420.218 137.771 420.218 133.696C420.218 127.15 411.314 121.844 411.314 121.844C411.314 121.844 402.41 127.15 402.41 133.696C402.41 137.771 404.272 145.955 406.667 151.555L401.526 162.678C404.647 163.893 407.966 164.514 411.314 164.51C414.777 164.51 418.08 163.855 421.102 162.678L415.961 151.555Z" fill="#A2001D"/>
<path d="M372.87 185.842C372.87 185.842 365.449 200.064 365.449 214.287H402.55C402.55 200.065 395.129 185.842 395.129 185.842L383.999 178.731L372.87 185.842Z" fill="#6DA544"/>
<path d="M395.13 185.843V182.288C395.13 176.397 390.147 171.622 384 171.622C377.853 171.622 372.87 176.398 372.87 182.288V185.843H395.13Z" fill="#D80027"/>
<path d="M256 0.958496V31.5115L210.833 56.6105H256V115.969H196.897L256 148.805V171.621H229.32L155.826 130.796V171.621H100.174V123.049L12.744 171.621H0V141.068L45.167 115.969H0V56.6105H59.103L0 23.7645V0.958496H26.68L100.174 41.7835V0.958496H155.826V49.5305L243.256 0.958496H256Z" fill="white"/>
<path d="M144 0.955444H112V70.2874H0V102.287H112V171.621H144V102.287H256V70.2874H144V0.955444Z" fill="#D80027"/>
<path d="M155.826 115.969L256 171.621V155.884L184.153 115.969H155.826Z" fill="#0052B4"/>
<path d="M155.826 115.969L256 171.621V155.884L184.153 115.969H155.826Z" fill="white"/>
<path d="M155.826 115.969L256 171.621V155.884L184.153 115.969H155.826ZM71.846 115.969L0 155.884V171.621L100.174 115.969H71.846Z" fill="#D80027"/>
<path d="M100.174 56.6074L0 0.955444V16.6924L71.847 56.6074H100.174Z" fill="#0052B4"/>
<path d="M100.174 56.6074L0 0.955444V16.6924L71.847 56.6074H100.174Z" fill="white"/>
<path d="M100.174 56.6074L0 0.955444V16.6924L71.847 56.6074H100.174ZM184.154 56.6074L256 16.6924V0.955444L155.826 56.6074H184.154Z" fill="#D80027"/>
</g>
<defs>
<clipPath id="clip0_3_2158">
<rect width="512" height="341.333" fill="white" transform="translate(0 0.958496)"/>
</clipPath>
</defs>
</svg>
