<svg width="513" height="343" viewBox="0 0 513 343" fill="none" xmlns="http://www.w3.org/2000/svg">
<g clip-path="url(#clip0_3_2143)">
<path d="M0 0.954102H513V342.958H0V0.954102Z" fill="black"/>
<path d="M0 49.9126H513V98.876H0V49.9126ZM0 245.766H513V294.73H0V245.766Z" fill="#FFDA44"/>
<path d="M0 0.954102H513V49.9175H0V0.954102Z" fill="#057F44"/>
<path d="M0 98.8809H513V147.844H0V98.8809ZM0 196.809H513V245.772H0V196.809Z" fill="#D80027"/>
<path d="M0 294.736H513V342.958H0V294.736Z" fill="#057F44"/>
<path d="M277.533 171.95L106.537 342.947H0V0.954102H106.537L277.533 171.95Z" fill="white"/>
<path d="M256.5 171.951L85.501 342.95H106.529L277.529 171.951L106.529 0.951172H85.501L256.5 171.951Z" fill="black"/>
<path d="M102.666 118.42L115.95 159.312H158.951L124.166 184.587L137.451 225.481L102.666 200.207L67.8778 225.481L81.1657 184.587L46.3799 159.312H89.3787L102.666 118.42Z" fill="#D80027"/>
<path d="M139.212 175.296L104.585 163.029C104.585 163.029 102.027 139.027 101.872 138.214C100.697 132.022 95.2559 127.342 88.7232 127.342C81.3328 127.342 75.3401 133.334 75.3401 140.725C75.3401 141.951 75.5185 143.132 75.8271 144.26L66.1191 154.034H83.3818C83.3818 171.951 70.0117 171.951 70.0117 189.795L77.4282 207.639H122.037L129.474 189.795H129.47C130.195 188.129 130.662 186.361 130.853 184.554C137.263 181.96 139.212 175.296 139.212 175.296Z" fill="#FFDA44"/>
</g>
<defs>
<clipPath id="clip0_3_2143">
<rect width="513" height="342" fill="white" transform="translate(0 0.954102)"/>
</clipPath>
</defs>
</svg>
